STARTFONT 2.1
COMMENT
COMMENT Converted from TrueType font "GOTHIC.TTF" by "ttf2bdf 2.6".
COMMENT
FONT -FreeType-Century Gothic-Medium-R-Normal--22-160-100-100-P-113-ISO10646-1
SIZE 16 100 100
FONTBOUNDINGBOX 29 32 -4 -7
STARTPROPERTIES 21
FOUNDRY "FreeType"
FAMILY_NAME "Century Gothic"
WEIGHT_NAME "Medium"
SLANT "R"
SETWIDTH_NAME "Normal"
ADD_STYLE_NAME ""
PIXEL_SIZE 22
POINT_SIZE 160
RESOLUTION_X 100
RESOLUTION_Y 100
SPACING "P"
AVERAGE_WIDTH 113
CHARSET_REGISTRY "ISO10646"
CHARSET_ENCODING "1"
FONT_ASCENT 22
FONT_DESCENT 4
COPYRIGHT "Typeface © The Monotype Corporation plc. Data © The Monotype Corporation plc / Type Solutions Inc. 1990-91 All Rights Reserved"
_TTF_FONTFILE "GOTHIC.TTF"
_TTF_PSNAME "CenturyGothic"
_XFREE86_GLYPH_RANGES "32_126 160_383 402 506_511 710_711 713 728_733 894 900_906 908 910_929 931_974 1025_1036 1038_1103 1105_1116 1118_1119 1168_1169 7808_7813 7922_7923 8211_8213 8215_8222 8224_8226 8230 8240 8242_8243 8249_8250 8252 8254 8260 8319 8355_8356 8359 8364 8453 8467 8470 8482 8486 8494 8539_8542 8592_8597 8616 8706 8710 8719 8721_8722 8725 8729_8730 8734_8735 8745 8747 8776 8800_8801 8804_8805 8962 8976 8992_8993 9472 9474 9484 9488 9492 9496 9500 9508 9516 9524 9532 9552_9580 9600 9604 9608"
_XFREE86_GLYPH_RANGES "9612 9616_9619 9632_9633 9642_9644 9650 9658 9660 9668 9674_9675 9679 9688_9689 9702 9786_9788 9792 9794 9824 9827 9829_9830 9834_9835 61440_61446 61696_61704 64257_64258"
ENDPROPERTIES
CHARS 668
STARTCHAR 0020
ENCODING 32
SWIDTH 270 0
DWIDTH 6 0
BBX 1 1 0 0
BITMAP
00
ENDCHAR
STARTCHAR 0021
ENCODING 33
SWIDTH 270 0
DWIDTH 6 0
BBX 2 16 2 0
BITMAP
C0
C0
C0
C0
C0
C0
C0
C0
C0
C0
C0
00
00
C0
C0
C0
ENDCHAR
STARTCHAR 0022
ENCODING 34
SWIDTH 315 0
DWIDTH 7 0
BBX 6 5 1 11
BITMAP
CC
CC
CC
CC
CC
ENDCHAR
STARTCHAR 0023
ENCODING 35
SWIDTH 720 0
DWIDTH 16 0
BBX 12 16 2 0
BITMAP
0CC0
0CC0
0CC0
0CC0
1980
FFF0
1980
1980
1980
1980
FFF0
1980
3300
3300
3300
3300
ENDCHAR
STARTCHAR 0024
ENCODING 36
SWIDTH 540 0
DWIDTH 12 0
BBX 11 20 0 -3
BITMAP
0600
1F00
36C0
6640
6600
6600
3600
3E00
0F00
07C0
06C0
0660
0660
0660
8660
66C0
3F80
0600
0600
0600
ENDCHAR
STARTCHAR 0025
ENCODING 37
SWIDTH 765 0
DWIDTH 17 0
BBX 16 17 1 -1
BITMAP
381C
6FF8
C630
C630
C660
6CC0
38C0
0180
0380
031C
0636
0663
0C63
1863
1836
301C
6000
ENDCHAR
STARTCHAR 0026
ENCODING 38
SWIDTH 765 0
DWIDTH 17 0
BBX 14 16 2 0
BITMAP
0E00
3180
3180
3180
3380
1B00
0E00
0C00
3E00
7300
6190
C0F8
C060
C0F0
6398
3E1C
ENDCHAR
STARTCHAR 0027
ENCODING 39
SWIDTH 180 0
DWIDTH 4 0
BBX 2 5 1 11
BITMAP
C0
C0
C0
C0
C0
ENDCHAR
STARTCHAR 0028
ENCODING 40
SWIDTH 405 0
DWIDTH 9 0
BBX 4 20 3 -4
BITMAP
30
60
60
60
60
C0
C0
C0
C0
C0
C0
C0
C0
C0
C0
E0
60
60
60
30
ENDCHAR
STARTCHAR 0029
ENCODING 41
SWIDTH 360 0
DWIDTH 8 0
BBX 4 20 1 -4
BITMAP
C0
60
60
60
70
30
30
30
30
30
30
30
30
30
30
60
60
60
60
C0
ENDCHAR
STARTCHAR 002A
ENCODING 42
SWIDTH 450 0
DWIDTH 10 0
BBX 8 8 1 8
BITMAP
18
18
DB
3C
3C
DB
18
18
ENDCHAR
STARTCHAR 002B
ENCODING 43
SWIDTH 675 0
DWIDTH 15 0
BBX 12 12 1 2
BITMAP
0600
0600
0600
0600
0600
FFF0
FFF0
0600
0600
0600
0600
0600
ENDCHAR
STARTCHAR 002C
ENCODING 44
SWIDTH 270 0
DWIDTH 6 0
BBX 3 5 1 -2
BITMAP
60
60
40
C0
80
ENDCHAR
STARTCHAR 002D
ENCODING 45
SWIDTH 315 0
DWIDTH 7 0
BBX 6 2 0 5
BITMAP
FC
FC
ENDCHAR
STARTCHAR 002E
ENCODING 46
SWIDTH 270 0
DWIDTH 6 0
BBX 3 3 2 0
BITMAP
E0
E0
E0
ENDCHAR
STARTCHAR 002F
ENCODING 47
SWIDTH 450 0
DWIDTH 10 0
BBX 8 18 1 -2
BITMAP
03
07
06
06
0E
0C
0C
1C
18
18
38
30
30
70
60
60
E0
C0
ENDCHAR
STARTCHAR 0030
ENCODING 48
SWIDTH 540 0
DWIDTH 12 0
BBX 11 16 0 0
BITMAP
1F00
3180
60C0
60C0
C060
C060
C060
C060
C060
C060
C060
C060
60C0
60C0
3180
1F00
ENDCHAR
STARTCHAR 0031
ENCODING 49
SWIDTH 540 0
DWIDTH 12 0
BBX 4 16 3 0
BITMAP
F0
30
30
30
30
30
30
30
30
30
30
30
30
30
30
30
ENDCHAR
STARTCHAR 0032
ENCODING 50
SWIDTH 540 0
DWIDTH 12 0
BBX 11 16 0 0
BITMAP
0F00
38C0
30C0
6060
6060
0060
00E0
00C0
0180
0300
0600
0C00
1800
3000
6000
FFE0
ENDCHAR
STARTCHAR 0033
ENCODING 51
SWIDTH 540 0
DWIDTH 12 0
BBX 11 16 0 0
BITMAP
1F00
3180
30C0
60C0
00C0
0180
0700
01C0
00C0
0060
0060
0060
C060
60C0
7180
1F00
ENDCHAR
STARTCHAR 0034
ENCODING 52
SWIDTH 540 0
DWIDTH 12 0
BBX 11 16 0 0
BITMAP
0080
0080
0180
0380
0780
0780
0D80
1980
1980
3180
6180
FFE0
0180
0180
0180
0180
ENDCHAR
STARTCHAR 0035
ENCODING 53
SWIDTH 540 0
DWIDTH 12 0
BBX 10 16 1 0
BITMAP
0F80
0C00
1800
1800
1800
3F00
2380
0180
00C0
00C0
00C0
00C0
C0C0
C180
6300
3E00
ENDCHAR
STARTCHAR 0036
ENCODING 54
SWIDTH 540 0
DWIDTH 12 0
BBX 10 16 1 0
BITMAP
0100
0300
0600
0C00
0C00
1800
3000
3E00
6380
C1C0
C0C0
C0C0
C0C0
6180
6180
1E00
ENDCHAR
STARTCHAR 0037
ENCODING 55
SWIDTH 540 0
DWIDTH 12 0
BBX 9 16 2 0
BITMAP
FF80
0300
0300
0600
0600
0C00
0C00
1800
1800
3000
3000
6000
6000
C000
C000
8000
ENDCHAR
STARTCHAR 0038
ENCODING 56
SWIDTH 540 0
DWIDTH 12 0
BBX 11 16 0 0
BITMAP
1F00
3180
60C0
60C0
60C0
60C0
3180
1F00
31C0
60C0
C060
C060
C060
60C0
71C0
1F00
ENDCHAR
STARTCHAR 0039
ENCODING 57
SWIDTH 540 0
DWIDTH 12 0
BBX 10 16 1 0
BITMAP
1E00
6180
6180
C0C0
C0C0
C0C0
E0C0
7180
1F80
0300
0600
0C00
0C00
1800
3000
2000
ENDCHAR
STARTCHAR 003A
ENCODING 58
SWIDTH 270 0
DWIDTH 6 0
BBX 3 12 2 0
BITMAP
E0
E0
E0
00
00
00
00
00
00
E0
E0
E0
ENDCHAR
STARTCHAR 003B
ENCODING 59
SWIDTH 270 0
DWIDTH 6 0
BBX 3 14 1 -2
BITMAP
E0
E0
E0
00
00
00
00
00
00
60
60
40
C0
80
ENDCHAR
STARTCHAR 003C
ENCODING 60
SWIDTH 585 0
DWIDTH 13 0
BBX 11 11 1 2
BITMAP
0020
01E0
0780
3E00
F800
C000
F800
3E00
0780
01E0
0020
ENDCHAR
STARTCHAR 003D
ENCODING 61
SWIDTH 585 0
DWIDTH 13 0
BBX 10 7 1 4
BITMAP
FFC0
FFC0
0000
0000
0000
FFC0
FFC0
ENDCHAR
STARTCHAR 003E
ENCODING 62
SWIDTH 585 0
DWIDTH 13 0
BBX 11 11 1 2
BITMAP
8000
F000
7C00
0F80
03E0
0060
03E0
0F80
7C00
F000
8000
ENDCHAR
STARTCHAR 003F
ENCODING 63
SWIDTH 585 0
DWIDTH 13 0
BBX 9 16 2 0
BITMAP
3E00
6300
C180
C180
0180
0700
1E00
3800
6000
6180
7380
1E00
0000
0E00
0E00
0E00
ENDCHAR
STARTCHAR 0040
ENCODING 64
SWIDTH 855 0
DWIDTH 19 0
BBX 16 16 2 0
BITMAP
07E0
1818
3004
6002
43B1
8671
8C71
8C61
8C61
8C62
8E64
47F8
6003
3006
0C1C
03F0
ENDCHAR
STARTCHAR 0041
ENCODING 65
SWIDTH 765 0
DWIDTH 17 0
BBX 15 16 1 0
BITMAP
0100
0380
0380
06C0
06C0
06C0
0C60
0C60
1830
1FF0
3018
3018
3018
600C
600C
C006
ENDCHAR
STARTCHAR 0042
ENCODING 66
SWIDTH 585 0
DWIDTH 13 0
BBX 9 16 2 0
BITMAP
FC00
C600
C300
C300
C300
C300
C600
FC00
C300
C380
C180
C180
C180
C180
C300
FE00
ENDCHAR
STARTCHAR 0043
ENCODING 67
SWIDTH 810 0
DWIDTH 18 0
BBX 14 16 2 0
BITMAP
07E0
1C38
300C
6004
6000
C000
C000
C000
C000
C000
C000
6000
6008
300C
1C30
07E0
ENDCHAR
STARTCHAR 0044
ENCODING 68
SWIDTH 720 0
DWIDTH 16 0
BBX 12 16 2 0
BITMAP
FE00
C180
C0C0
C060
C060
C030
C030
C030
C030
C030
C030
C020
C060
C0C0
C1C0
FF00
ENDCHAR
STARTCHAR 0045
ENCODING 69
SWIDTH 540 0
DWIDTH 12 0
BBX 9 16 2 0
BITMAP
FF80
C000
C000
C000
C000
C000
C000
FF80
C000
C000
C000
C000
C000
C000
C000
FF80
ENDCHAR
STARTCHAR 0046
ENCODING 70
SWIDTH 495 0
DWIDTH 11 0
BBX 8 16 2 0
BITMAP
FF
C0
C0
C0
C0
C0
C0
FF
C0
C0
C0
C0
C0
C0
C0
C0
ENDCHAR
STARTCHAR 0047
ENCODING 71
SWIDTH 855 0
DWIDTH 19 0
BBX 15 16 2 0
BITMAP
07E0
1C30
301C
6008
6000
C000
C000
C000
C07E
C006
C006
600C
600C
3018
1C30
07E0
ENDCHAR
STARTCHAR 0048
ENCODING 72
SWIDTH 675 0
DWIDTH 15 0
BBX 11 16 2 0
BITMAP
C060
C060
C060
C060
C060
C060
C060
FFE0
C060
C060
C060
C060
C060
C060
C060
C060
ENDCHAR
STARTCHAR 0049
ENCODING 73
SWIDTH 270 0
DWIDTH 6 0
BBX 2 16 2 0
BITMAP
C0
C0
C0
C0
C0
C0
C0
C0
C0
C0
C0
C0
C0
C0
C0
C0
ENDCHAR
STARTCHAR 004A
ENCODING 74
SWIDTH 495 0
DWIDTH 11 0
BBX 8 16 1 0
BITMAP
03
03
03
03
03
03
03
03
03
03
03
03
03
03
C6
7C
ENDCHAR
STARTCHAR 004B
ENCODING 75
SWIDTH 585 0
DWIDTH 13 0
BBX 10 16 2 0
BITMAP
C180
C300
C600
CC00
D800
F000
E000
E000
F000
D800
CC00
C600
C700
C300
C180
C0C0
ENDCHAR
STARTCHAR 004C
ENCODING 76
SWIDTH 450 0
DWIDTH 10 0
BBX 7 16 2 0
BITMAP
C0
C0
C0
C0
C0
C0
C0
C0
C0
C0
C0
C0
C0
C0
C0
FE
ENDCHAR
STARTCHAR 004D
ENCODING 77
SWIDTH 1035 0
DWIDTH 23 0
BBX 19 16 2 0
BITMAP
200080
300180
300180
380380
7803C0
6C06C0
6C06C0
660CC0
660CC0
6318C0
6318C0
61B0C0
C1B060
C0E060
C0E060
C04060
ENDCHAR
STARTCHAR 004E
ENCODING 78
SWIDTH 720 0
DWIDTH 16 0
BBX 12 16 2 0
BITMAP
8030
C030
E030
E030
F030
D830
CC30
CE30
C730
C330
C1B0
C0F0
C070
C070
C030
C010
ENDCHAR
STARTCHAR 004F
ENCODING 79
SWIDTH 855 0
DWIDTH 19 0
BBX 15 16 2 0
BITMAP
07C0
1830
3018
600C
600C
C006
C006
C006
C006
C006
C006
600C
600C
3018
1830
07C0
ENDCHAR
STARTCHAR 0050
ENCODING 80
SWIDTH 585 0
DWIDTH 13 0
BBX 9 16 2 0
BITMAP
FE00
C300
C180
C180
C180
C180
C300
FE00
C000
C000
C000
C000
C000
C000
C000
C000
ENDCHAR
STARTCHAR 0051
ENCODING 81
SWIDTH 855 0
DWIDTH 19 0
BBX 15 17 2 -1
BITMAP
07C0
1830
3018
600C
600C
C006
C006
C006
C006
C186
C0C6
606C
603C
3038
1878
07CC
0006
ENDCHAR
STARTCHAR 0052
ENCODING 82
SWIDTH 585 0
DWIDTH 13 0
BBX 9 16 2 0
BITMAP
FE00
C300
C180
C180
C180
C180
C300
FE00
D800
D800
CC00
CC00
C600
C700
C300
C180
ENDCHAR
STARTCHAR 0053
ENCODING 83
SWIDTH 495 0
DWIDTH 11 0
BBX 10 16 0 0
BITMAP
1F00
3180
6080
6000
6000
3000
1C00
0E00
0700
0180
01C0
00C0
40C0
C0C0
6180
1E00
ENDCHAR
STARTCHAR 0054
ENCODING 84
SWIDTH 495 0
DWIDTH 11 0
BBX 10 16 0 0
BITMAP
FFC0
0C00
0C00
0C00
0C00
0C00
0C00
0C00
0C00
0C00
0C00
0C00
0C00
0C00
0C00
0C00
ENDCHAR
STARTCHAR 0055
ENCODING 85
SWIDTH 675 0
DWIDTH 15 0
BBX 11 16 2 0
BITMAP
C060
C060
C060
C060
C060
C060
C060
C060
C060
C060
C060
C060
C060
60C0
7180
1F00
ENDCHAR
STARTCHAR 0056
ENCODING 86
SWIDTH 765 0
DWIDTH 17 0
BBX 15 16 1 0
BITMAP
C006
600C
600C
3018
3018
3018
1830
1830
0C60
0C60
06C0
06C0
07C0
0380
0380
0100
ENDCHAR
STARTCHAR 0057
ENCODING 87
SWIDTH 1035 0
DWIDTH 23 0
BBX 21 16 1 0
BITMAP
C02018
C06018
607030
607030
60D830
30D860
318860
318C60
318C60
1B06C0
1B06C0
1B02C0
0E0380
0E0380
0C0180
0C0180
ENDCHAR
STARTCHAR 0058
ENCODING 88
SWIDTH 585 0
DWIDTH 13 0
BBX 12 16 0 0
BITMAP
C030
6060
6060
30C0
1980
1980
0F00
0600
0600
0F00
1980
1980
30C0
6060
6060
C030
ENDCHAR
STARTCHAR 0059
ENCODING 89
SWIDTH 630 0
DWIDTH 14 0
BBX 12 16 1 0
BITMAP
C030
6060
70E0
30C0
1980
1980
0F00
0F00
0600
0600
0600
0600
0600
0600
0600
0600
ENDCHAR
STARTCHAR 005A
ENCODING 90
SWIDTH 495 0
DWIDTH 11 0
BBX 8 16 1 0
BITMAP
FF
06
06
06
0C
0C
0C
18
18
30
30
30
60
60
60
FF
ENDCHAR
STARTCHAR 005B
ENCODING 91
SWIDTH 360 0
DWIDTH 8 0
BBX 4 20 3 -4
BITMAP
F0
C0
C0
C0
C0
C0
C0
C0
C0
C0
C0
C0
C0
C0
C0
C0
C0
C0
C0
F0
ENDCHAR
STARTCHAR 005C
ENCODING 92
SWIDTH 585 0
DWIDTH 13 0
BBX 12 18 0 -2
BITMAP
C000
6000
6000
3000
3800
1800
0C00
0C00
0600
0600
0300
0300
0180
01C0
00C0
0060
0060
0030
ENDCHAR
STARTCHAR 005D
ENCODING 93
SWIDTH 360 0
DWIDTH 8 0
BBX 4 20 1 -4
BITMAP
F0
30
30
30
30
30
30
30
30
30
30
30
30
30
30
30
30
30
30
F0
ENDCHAR
STARTCHAR 005E
ENCODING 94
SWIDTH 630 0
DWIDTH 14 0
BBX 11 12 1 4
BITMAP
0400
0E00
0E00
0E00
1B00
1B00
3180
3180
70C0
60C0
60C0
C060
ENDCHAR
STARTCHAR 005F
ENCODING 95
SWIDTH 495 0
DWIDTH 11 0
BBX 11 1 0 -3
BITMAP
FFE0
ENDCHAR
STARTCHAR 0060
ENCODING 96
SWIDTH 360 0
DWIDTH 8 0
BBX 4 3 2 14
BITMAP
C0
60
30
ENDCHAR
STARTCHAR 0061
ENCODING 97
SWIDTH 675 0
DWIDTH 15 0
BBX 12 12 1 0
BITMAP
1F30
30B0
6070
E030
C030
C030
C030
C030
E030
6070
30B0
1F30
ENDCHAR
STARTCHAR 0062
ENCODING 98
SWIDTH 675 0
DWIDTH 15 0
BBX 12 16 2 0
BITMAP
C000
C000
C000
C000
CF80
D0C0
E060
C070
C030
C030
C030
C030
C070
E060
D0C0
CF80
ENDCHAR
STARTCHAR 0063
ENCODING 99
SWIDTH 630 0
DWIDTH 14 0
BBX 12 12 1 0
BITMAP
0FC0
3820
6010
6000
C000
C000
C000
C000
6000
6010
3820
0FC0
ENDCHAR
STARTCHAR 0064
ENCODING 100
SWIDTH 675 0
DWIDTH 15 0
BBX 12 16 1 0
BITMAP
0030
0030
0030
0030
1F30
30B0
6070
E030
C030
C030
C030
C030
E030
6070
30B0
1F30
ENDCHAR
STARTCHAR 0065
ENCODING 101
SWIDTH 630 0
DWIDTH 14 0
BBX 12 12 1 0
BITMAP
1F80
30C0
6060
6030
C030
FFF0
C000
C000
C060
6060
30C0
1F80
ENDCHAR
STARTCHAR 0066
ENCODING 102
SWIDTH 315 0
DWIDTH 7 0
BBX 6 16 1 0
BITMAP
1C
30
30
30
FC
30
30
30
30
30
30
30
30
30
30
30
ENDCHAR
STARTCHAR 0067
ENCODING 103
SWIDTH 675 0
DWIDTH 15 0
BBX 12 16 1 -4
BITMAP
1F30
30B0
6070
6030
C030
C030
C030
C030
C030
6070
30B0
1F30
0030
C060
70C0
1F80
ENDCHAR
STARTCHAR 0068
ENCODING 104
SWIDTH 585 0
DWIDTH 13 0
BBX 11 16 1 0
BITMAP
C000
C000
C000
C000
CF80
D0C0
E060
C060
C060
C060
C060
C060
C060
C060
C060
C060
ENDCHAR
STARTCHAR 0069
ENCODING 105
SWIDTH 180 0
DWIDTH 4 0
BBX 2 16 1 0
BITMAP
C0
C0
00
00
C0
C0
C0
C0
C0
C0
C0
C0
C0
C0
C0
C0
ENDCHAR
STARTCHAR 006A
ENCODING 106
SWIDTH 180 0
DWIDTH 4 0
BBX 4 20 -1 -4
BITMAP
30
30
00
00
30
30
30
30
30
30
30
30
30
30
30
30
30
30
30
E0
ENDCHAR
STARTCHAR 006B
ENCODING 107
SWIDTH 495 0
DWIDTH 11 0
BBX 9 16 2 0
BITMAP
C000
C000
C000
C000
C300
C600
CC00
D800
F000
E000
F000
D800
CC00
C600
C300
C180
ENDCHAR
STARTCHAR 006C
ENCODING 108
SWIDTH 270 0
DWIDTH 6 0
BBX 2 16 2 0
BITMAP
C0
C0
C0
C0
C0
C0
C0
C0
C0
C0
C0
C0
C0
C0
C0
C0
ENDCHAR
STARTCHAR 006D
ENCODING 109
SWIDTH 990 0
DWIDTH 22 0
BBX 18 12 2 0
BITMAP
CF0F00
D19180
E0E0C0
C0C0C0
C0C0C0
C0C0C0
C0C0C0
C0C0C0
C0C0C0
C0C0C0
C0C0C0
C0C0C0
ENDCHAR
STARTCHAR 006E
ENCODING 110
SWIDTH 585 0
DWIDTH 13 0
BBX 11 12 1 0
BITMAP
CF80
D0C0
E060
C060
C060
C060
C060
C060
C060
C060
C060
C060
ENDCHAR
STARTCHAR 006F
ENCODING 111
SWIDTH 630 0
DWIDTH 14 0
BBX 12 12 1 0
BITMAP
0F00
30C0
6060
6060
C030
C030
C030
C030
6060
6060
30C0
1F80
ENDCHAR
STARTCHAR 0070
ENCODING 112
SWIDTH 675 0
DWIDTH 15 0
BBX 12 16 2 -4
BITMAP
CF80
D0C0
E060
C070
C030
C030
C030
C030
C070
E060
D0C0
CF80
C000
C000
C000
C000
ENDCHAR
STARTCHAR 0071
ENCODING 113
SWIDTH 675 0
DWIDTH 15 0
BBX 12 16 1 -4
BITMAP
1F30
30B0
6070
E030
C030
C030
C030
C030
E030
6070
30B0
1F30
0030
0030
0030
0030
ENDCHAR
STARTCHAR 0072
ENCODING 114
SWIDTH 315 0
DWIDTH 7 0
BBX 6 12 1 0
BITMAP
CC
D0
E0
C0
C0
C0
C0
C0
C0
C0
C0
C0
ENDCHAR
STARTCHAR 0073
ENCODING 115
SWIDTH 405 0
DWIDTH 9 0
BBX 7 12 1 0
BITMAP
3C
62
60
60
70
38
1C
0E
06
06
CC
78
ENDCHAR
STARTCHAR 0074
ENCODING 116
SWIDTH 360 0
DWIDTH 8 0
BBX 6 16 1 0
BITMAP
30
30
30
30
FC
30
30
30
30
30
30
30
30
30
30
30
ENDCHAR
STARTCHAR 0075
ENCODING 117
SWIDTH 585 0
DWIDTH 13 0
BBX 9 12 2 0
BITMAP
C180
C180
C180
C180
C180
C180
C180
C180
C180
4100
6300
3E00
ENDCHAR
STARTCHAR 0076
ENCODING 118
SWIDTH 585 0
DWIDTH 13 0
BBX 11 12 1 0
BITMAP
C060
60C0
60C0
60C0
3180
3180
1B00
1B00
0E00
0E00
0E00
0400
ENDCHAR
STARTCHAR 0077
ENCODING 119
SWIDTH 900 0
DWIDTH 20 0
BBX 19 12 0 0
BITMAP
C04060
60E0C0
60E0C0
61A0C0
31B180
31B180
1B1B00
1B1B00
1B0B00
0E0E00
0E0E00
0C0600
ENDCHAR
STARTCHAR 0078
ENCODING 120
SWIDTH 495 0
DWIDTH 11 0
BBX 11 12 0 0
BITMAP
60C0
3180
1B00
1B00
0E00
0E00
0E00
1B00
3180
3180
60C0
C060
ENDCHAR
STARTCHAR 0079
ENCODING 121
SWIDTH 585 0
DWIDTH 13 0
BBX 12 16 0 -4
BITMAP
C030
6060
6060
30C0
30C0
3180
1980
1B00
0F00
0E00
0600
0C00
0C00
1800
1800
3000
ENDCHAR
STARTCHAR 007A
ENCODING 122
SWIDTH 405 0
DWIDTH 9 0
BBX 9 12 0 0
BITMAP
7F80
0300
0300
0600
0C00
0C00
1800
1800
3000
6000
6000
FF80
ENDCHAR
STARTCHAR 007B
ENCODING 123
SWIDTH 360 0
DWIDTH 8 0
BBX 6 20 1 -4
BITMAP
1C
30
30
30
30
30
30
30
30
60
C0
60
30
30
30
30
30
30
30
1C
ENDCHAR
STARTCHAR 007C
ENCODING 124
SWIDTH 675 0
DWIDTH 15 0
BBX 2 20 6 -4
BITMAP
C0
C0
C0
C0
C0
C0
C0
C0
C0
C0
C0
C0
C0
C0
C0
C0
C0
C0
C0
C0
ENDCHAR
STARTCHAR 007D
ENCODING 125
SWIDTH 315 0
DWIDTH 7 0
BBX 6 20 0 -4
BITMAP
E0
30
30
30
30
30
30
30
30
18
0C
18
30
30
30
30
30
30
30
E0
ENDCHAR
STARTCHAR 007E
ENCODING 126
SWIDTH 585 0
DWIDTH 13 0
BBX 10 3 1 7
BITMAP
7000
8C40
0380
ENDCHAR
STARTCHAR 00A0
ENCODING 160
SWIDTH 270 0
DWIDTH 6 0
BBX 1 1 0 0
BITMAP
00
ENDCHAR
STARTCHAR 00A1
ENCODING 161
SWIDTH 270 0
DWIDTH 6 0
BBX 2 16 2 -4
BITMAP
C0
C0
C0
00
00
C0
C0
C0
C0
C0
C0
C0
C0
C0
C0
C0
ENDCHAR
STARTCHAR 00A2
ENCODING 162
SWIDTH 540 0
DWIDTH 12 0
BBX 11 17 1 -3
BITMAP
0060
0060
1FC0
30E0
6180
4380
C300
C600
C600
CC00
4C00
7800
3880
3F80
3000
6000
6000
ENDCHAR
STARTCHAR 00A3
ENCODING 163
SWIDTH 540 0
DWIDTH 12 0
BBX 11 16 0 0
BITMAP
0F00
1980
30C0
30C0
3000
3800
1800
FF00
0C00
0C00
0C00
0C00
7C60
DC60
DE60
71C0
ENDCHAR
STARTCHAR 00A4
ENCODING 164
SWIDTH 540 0
DWIDTH 12 0
BBX 11 11 1 1
BITMAP
5F40
F1E0
60C0
C060
C060
C060
C060
C060
60C0
F1C0
5F60
ENDCHAR
STARTCHAR 00A5
ENCODING 165
SWIDTH 495 0
DWIDTH 11 0
BBX 10 16 0 0
BITMAP
C0C0
6180
6180
3300
3300
1E00
1E00
0C00
7F80
0C00
0C00
7F80
0C00
0C00
0C00
0C00
ENDCHAR
STARTCHAR 00A6
ENCODING 166
SWIDTH 675 0
DWIDTH 15 0
BBX 2 20 6 -4
BITMAP
C0
C0
C0
C0
C0
C0
C0
80
00
40
C0
C0
C0
C0
C0
C0
C0
C0
C0
C0
ENDCHAR
STARTCHAR 00A7
ENCODING 167
SWIDTH 630 0
DWIDTH 14 0
BBX 10 20 1 -4
BITMAP
3F00
6180
C0C0
C000
E000
7000
7C00
E700
C180
C0C0
C0C0
70C0
3F80
0F00
0380
01C0
00C0
C0C0
6180
3F00
ENDCHAR
STARTCHAR 00A8
ENCODING 168
SWIDTH 360 0
DWIDTH 8 0
BBX 8 3 0 14
BITMAP
E7
E7
E7
ENDCHAR
STARTCHAR 00A9
ENCODING 169
SWIDTH 720 0
DWIDTH 16 0
BBX 16 16 0 0
BITMAP
07E0
1FF8
3C3C
700E
61C6
E267
C663
C603
C603
C663
E267
63C6
700E
3C3C
1FF8
07E0
ENDCHAR
STARTCHAR 00AA
ENCODING 170
SWIDTH 360 0
DWIDTH 8 0
BBX 6 7 1 9
BITMAP
7C
FC
CC
CC
CC
FC
7C
ENDCHAR
STARTCHAR 00AB
ENCODING 171
SWIDTH 405 0
DWIDTH 9 0
BBX 9 12 0 0
BITMAP
3180
3180
6300
6300
6300
C600
C600
C600
6300
6300
6300
3180
ENDCHAR
STARTCHAR 00AC
ENCODING 172
SWIDTH 585 0
DWIDTH 13 0
BBX 10 7 1 4
BITMAP
FFC0
FFC0
00C0
00C0
00C0
00C0
00C0
ENDCHAR
STARTCHAR 00AD
ENCODING 173
SWIDTH 315 0
DWIDTH 7 0
BBX 6 2 0 5
BITMAP
FC
FC
ENDCHAR
STARTCHAR 00AE
ENCODING 174
SWIDTH 720 0
DWIDTH 16 0
BBX 16 16 0 0
BITMAP
07E0
1FF8
3C3C
700E
6006
E7C7
C6C3
C683
C7C3
C6C3
E6C7
6006
700E
3C3C
1FF8
07E0
ENDCHAR
STARTCHAR 00AF
ENCODING 175
SWIDTH 495 0
DWIDTH 11 0
BBX 13 1 -1 17
BITMAP
FFF8
ENDCHAR
STARTCHAR 00B0
ENCODING 176
SWIDTH 405 0
DWIDTH 9 0
BBX 8 7 0 9
BITMAP
3C
66
C3
C3
C3
66
3C
ENDCHAR
STARTCHAR 00B1
ENCODING 177
SWIDTH 585 0
DWIDTH 13 0
BBX 12 16 0 -1
BITMAP
0600
0600
0600
0600
0600
FFF0
FFF0
0600
0600
0600
0600
0600
0000
0000
FFF0
FFF0
ENDCHAR
STARTCHAR 00B2
ENCODING 178
SWIDTH 315 0
DWIDTH 7 0
BBX 6 8 0 8
BITMAP
38
7C
CC
CC
18
30
60
FC
ENDCHAR
STARTCHAR 00B3
ENCODING 179
SWIDTH 360 0
DWIDTH 8 0
BBX 7 8 0 8
BITMAP
7C
C6
06
1C
06
C6
66
3C
ENDCHAR
STARTCHAR 00B4
ENCODING 180
SWIDTH 360 0
DWIDTH 8 0
BBX 4 3 2 14
BITMAP
30
60
C0
ENDCHAR
STARTCHAR 00B5
ENCODING 181
SWIDTH 585 0
DWIDTH 13 0
BBX 9 16 2 -4
BITMAP
C180
C180
C180
C180
C180
C180
C180
C180
C180
E380
D580
C980
C000
C000
C000
C000
ENDCHAR
STARTCHAR 00B6
ENCODING 182
SWIDTH 585 0
DWIDTH 13 0
BBX 11 18 1 -2
BITMAP
3FE0
7CC0
FCC0
FCC0
FCC0
FCC0
7CC0
3CC0
0CC0
0CC0
0CC0
0CC0
0CC0
0CC0
0CC0
0CC0
0CC0
0CC0
ENDCHAR
STARTCHAR 00B7
ENCODING 183
SWIDTH 315 0
DWIDTH 7 0
BBX 3 3 4 6
BITMAP
E0
E0
E0
ENDCHAR
STARTCHAR 00B8
ENCODING 184
SWIDTH 360 0
DWIDTH 8 0
BBX 5 4 2 -4
BITMAP
20
38
18
F0
ENDCHAR
STARTCHAR 00B9
ENCODING 185
SWIDTH 315 0
DWIDTH 7 0
BBX 3 8 2 8
BITMAP
E0
60
60
60
60
60
60
60
ENDCHAR
STARTCHAR 00BA
ENCODING 186
SWIDTH 360 0
DWIDTH 8 0
BBX 7 7 0 9
BITMAP
38
7C
C6
C6
C6
7C
38
ENDCHAR
STARTCHAR 00BB
ENCODING 187
SWIDTH 405 0
DWIDTH 9 0
BBX 9 12 0 0
BITMAP
C600
6300
6300
6300
3180
3180
3180
6300
6300
6300
C600
C600
ENDCHAR
STARTCHAR 00BC
ENCODING 188
SWIDTH 810 0
DWIDTH 18 0
BBX 16 16 2 0
BITMAP
E00C
6018
6030
6030
6060
6060
60C0
6180
0182
0306
060E
061E
0C3E
0C7F
1806
3006
ENDCHAR
STARTCHAR 00BD
ENCODING 189
SWIDTH 810 0
DWIDTH 18 0
BBX 14 16 2 0
BITMAP
E018
6030
6060
6060
60C0
60C0
6180
6300
0338
067C
0CCC
0CCC
1818
1830
3060
60FC
ENDCHAR
STARTCHAR 00BE
ENCODING 190
SWIDTH 810 0
DWIDTH 18 0
BBX 18 16 0 0
BITMAP
7C0300
C60600
060C00
1C0C00
061800
C61800
663000
3C6000
006080
00C180
018380
018780
030F80
031FC0
060180
0C0180
ENDCHAR
STARTCHAR 00BF
ENCODING 191
SWIDTH 585 0
DWIDTH 13 0
BBX 9 16 2 -4
BITMAP
1C00
1C00
1C00
0000
3C00
E700
C300
0300
0E00
3C00
7000
C000
C180
C180
6300
3E00
ENDCHAR
STARTCHAR 00C0
ENCODING 192
SWIDTH 765 0
DWIDTH 17 0
BBX 15 20 1 0
BITMAP
0600
0300
0180
0000
0100
0380
0380
06C0
06C0
06C0
0C60
0C60
1830
1FF0
3018
3018
3018
600C
600C
C006
ENDCHAR
STARTCHAR 00C1
ENCODING 193
SWIDTH 765 0
DWIDTH 17 0
BBX 15 20 1 0
BITMAP
00C0
0180
0300
0000
0100
0380
0380
06C0
06C0
06C0
0C60
0C60
1830
1FF0
3018
3018
3018
600C
600C
C006
ENDCHAR
STARTCHAR 00C2
ENCODING 194
SWIDTH 765 0
DWIDTH 17 0
BBX 15 20 1 0
BITMAP
0300
0780
0CC0
0000
0100
0380
0380
06C0
06C0
06C0
0C60
0C60
1830
1FF0
3018
3018
3018
600C
600C
C006
ENDCHAR
STARTCHAR 00C3
ENCODING 195
SWIDTH 765 0
DWIDTH 17 0
BBX 15 19 1 0
BITMAP
0710
08E0
0000
0100
0380
0380
06C0
06C0
06C0
0C60
0C60
1830
1FF0
3018
3018
3018
600C
600C
C006
ENDCHAR
STARTCHAR 00C4
ENCODING 196
SWIDTH 765 0
DWIDTH 17 0
BBX 15 20 1 0
BITMAP
0E70
0E70
0E70
0000
0100
0380
0380
06C0
06C0
06C0
0C60
0C60
1830
1FF0
3018
3018
3018
600C
600C
C006
ENDCHAR
STARTCHAR 00C5
ENCODING 197
SWIDTH 765 0
DWIDTH 17 0
BBX 15 22 1 0
BITMAP
0380
0440
0440
0440
0380
0000
0100
0380
0380
06C0
06C0
06C0
0C60
0C60
1830
1FF0
3018
3018
3018
600C
600C
C006
ENDCHAR
STARTCHAR 00C6
ENCODING 198
SWIDTH 990 0
DWIDTH 22 0
BBX 20 16 0 0
BITMAP
007FF0
007800
00D800
00D800
019800
031800
031800
061FF0
061800
0C1800
1FF800
181800
301800
301800
601800
C01FF0
ENDCHAR
STARTCHAR 00C7
ENCODING 199
SWIDTH 810 0
DWIDTH 18 0
BBX 14 20 2 -4
BITMAP
07E0
1C38
300C
6004
6000
C000
C000
C000
C000
C000
C000
6000
6008
300C
1C30
07E0
0200
0380
0180
0F00
ENDCHAR
STARTCHAR 00C8
ENCODING 200
SWIDTH 540 0
DWIDTH 12 0
BBX 9 20 2 0
BITMAP
3000
1800
0C00
0000
FF80
C000
C000
C000
C000
C000
C000
FF80
C000
C000
C000
C000
C000
C000
C000
FF80
ENDCHAR
STARTCHAR 00C9
ENCODING 201
SWIDTH 540 0
DWIDTH 12 0
BBX 9 20 2 0
BITMAP
0600
0C00
1800
0000
FF80
C000
C000
C000
C000
C000
C000
FF80
C000
C000
C000
C000
C000
C000
C000
FF80
ENDCHAR
STARTCHAR 00CA
ENCODING 202
SWIDTH 540 0
DWIDTH 12 0
BBX 9 20 2 0
BITMAP
1800
3C00
6600
0000
FF80
C000
C000
C000
C000
C000
C000
FF80
C000
C000
C000
C000
C000
C000
C000
FF80
ENDCHAR
STARTCHAR 00CB
ENCODING 203
SWIDTH 540 0
DWIDTH 12 0
BBX 9 20 2 0
BITMAP
E700
E700
E700
0000
FF80
C000
C000
C000
C000
C000
C000
FF80
C000
C000
C000
C000
C000
C000
C000
FF80
ENDCHAR
STARTCHAR 00CC
ENCODING 204
SWIDTH 270 0
DWIDTH 6 0
BBX 4 20 0 0
BITMAP
C0
60
30
00
30
30
30
30
30
30
30
30
30
30
30
30
30
30
30
30
ENDCHAR
STARTCHAR 00CD
ENCODING 205
SWIDTH 270 0
DWIDTH 6 0
BBX 4 20 1 0
BITMAP
30
60
C0
00
60
60
60
60
60
60
60
60
60
60
60
60
60
60
60
60
ENDCHAR
STARTCHAR 00CE
ENCODING 206
SWIDTH 270 0
DWIDTH 6 0
BBX 6 20 0 0
BITMAP
30
78
CC
00
30
30
30
30
30
30
30
30
30
30
30
30
30
30
30
30
ENDCHAR
STARTCHAR 00CF
ENCODING 207
SWIDTH 270 0
DWIDTH 6 0
BBX 8 20 -1 0
BITMAP
E7
E7
E7
00
18
18
18
18
18
18
18
18
18
18
18
18
18
18
18
18
ENDCHAR
STARTCHAR 00D0
ENCODING 208
SWIDTH 765 0
DWIDTH 17 0
BBX 15 16 0 0
BITMAP
3FC0
3030
3018
300C
300C
3006
3006
3006
FE06
3006
3006
300C
300C
3018
3030
3FE0
ENDCHAR
STARTCHAR 00D1
ENCODING 209
SWIDTH 720 0
DWIDTH 16 0
BBX 12 19 2 0
BITMAP
1C40
2380
0000
8030
C030
E030
E030
F030
D830
CC30
CE30
C730
C330
C1B0
C0F0
C070
C070
C030
C010
ENDCHAR
STARTCHAR 00D2
ENCODING 210
SWIDTH 855 0
DWIDTH 19 0
BBX 15 20 2 0
BITMAP
0600
0300
0180
0000
07C0
1830
3018
600C
600C
C006
C006
C006
C006
C006
C006
600C
600C
3018
1830
07C0
ENDCHAR
STARTCHAR 00D3
ENCODING 211
SWIDTH 855 0
DWIDTH 19 0
BBX 15 20 2 0
BITMAP
00C0
0180
0300
0000
07C0
1830
3018
600C
600C
C006
C006
C006
C006
C006
C006
600C
600C
3018
1830
07C0
ENDCHAR
STARTCHAR 00D4
ENCODING 212
SWIDTH 855 0
DWIDTH 19 0
BBX 15 20 2 0
BITMAP
0300
0780
0CC0
0000
07C0
1830
3018
600C
600C
C006
C006
C006
C006
C006
C006
600C
600C
3018
1830
07C0
ENDCHAR
STARTCHAR 00D5
ENCODING 213
SWIDTH 855 0
DWIDTH 19 0
BBX 15 19 2 0
BITMAP
0E20
11C0
0000
07C0
1830
3018
600C
600C
C006
C006
C006
C006
C006
C006
600C
600C
3018
1830
07C0
ENDCHAR
STARTCHAR 00D6
ENCODING 214
SWIDTH 855 0
DWIDTH 19 0
BBX 15 20 2 0
BITMAP
1CE0
1CE0
1CE0
0000
07C0
1830
3018
600C
600C
C006
C006
C006
C006
C006
C006
600C
600C
3018
1830
07C0
ENDCHAR
STARTCHAR 00D7
ENCODING 215
SWIDTH 585 0
DWIDTH 13 0
BBX 9 9 2 4
BITMAP
0100
C180
6300
3600
1C00
1C00
3600
6300
C180
ENDCHAR
STARTCHAR 00D8
ENCODING 216
SWIDTH 855 0
DWIDTH 19 0
BBX 15 16 2 0
BITMAP
07CE
187C
3018
603C
603C
C066
C0C6
C186
C186
C306
C606
6C0C
2C0C
3818
3C30
77E0
ENDCHAR
STARTCHAR 00D9
ENCODING 217
SWIDTH 675 0
DWIDTH 15 0
BBX 11 20 2 0
BITMAP
1800
0C00
0600
0000
C060
C060
C060
C060
C060
C060
C060
C060
C060
C060
C060
C060
C060
60C0
7180
1F00
ENDCHAR
STARTCHAR 00DA
ENCODING 218
SWIDTH 675 0
DWIDTH 15 0
BBX 11 20 2 0
BITMAP
0300
0600
0C00
0000
C060
C060
C060
C060
C060
C060
C060
C060
C060
C060
C060
C060
C060
60C0
7180
1F00
ENDCHAR
STARTCHAR 00DB
ENCODING 219
SWIDTH 675 0
DWIDTH 15 0
BBX 11 20 2 0
BITMAP
0C00
1E00
3300
0000
C060
C060
C060
C060
C060
C060
C060
C060
C060
C060
C060
C060
C060
60C0
7180
1F00
ENDCHAR
STARTCHAR 00DC
ENCODING 220
SWIDTH 675 0
DWIDTH 15 0
BBX 11 20 2 0
BITMAP
39C0
39C0
39C0
0000
C060
C060
C060
C060
C060
C060
C060
C060
C060
C060
C060
C060
C060
60C0
7180
1F00
ENDCHAR
STARTCHAR 00DD
ENCODING 221
SWIDTH 630 0
DWIDTH 14 0
BBX 12 20 1 0
BITMAP
0300
0600
0C00
0000
C030
6060
70E0
30C0
1980
1980
0F00
0F00
0600
0600
0600
0600
0600
0600
0600
0600
ENDCHAR
STARTCHAR 00DE
ENCODING 222
SWIDTH 585 0
DWIDTH 13 0
BBX 9 16 2 0
BITMAP
C000
C000
C000
C000
FE00
C300
C180
C180
C180
C180
C300
FE00
C000
C000
C000
C000
ENDCHAR
STARTCHAR 00DF
ENCODING 223
SWIDTH 540 0
DWIDTH 12 0
BBX 9 16 2 0
BITMAP
3C00
6600
C300
C300
C300
C600
CC00
CC00
C300
C300
C180
C180
C180
C180
C300
DE00
ENDCHAR
STARTCHAR 00E0
ENCODING 224
SWIDTH 675 0
DWIDTH 15 0
BBX 12 17 1 0
BITMAP
0C00
0600
0300
0000
0000
1F30
30B0
6070
E030
C030
C030
C030
C030
E030
6070
30B0
1F30
ENDCHAR
STARTCHAR 00E1
ENCODING 225
SWIDTH 675 0
DWIDTH 15 0
BBX 12 17 1 0
BITMAP
0300
0600
0C00
0000
0000
1F30
30B0
6070
E030
C030
C030
C030
C030
E030
6070
30B0
1F30
ENDCHAR
STARTCHAR 00E2
ENCODING 226
SWIDTH 675 0
DWIDTH 15 0
BBX 12 17 1 0
BITMAP
0600
0F00
1980
0000
0000
1F30
30B0
6070
E030
C030
C030
C030
C030
E030
6070
30B0
1F30
ENDCHAR
STARTCHAR 00E3
ENCODING 227
SWIDTH 675 0
DWIDTH 15 0
BBX 12 16 1 0
BITMAP
1C40
2380
0000
0000
1F30
30B0
6070
E030
C030
C030
C030
C030
E030
6070
30B0
1F30
ENDCHAR
STARTCHAR 00E4
ENCODING 228
SWIDTH 675 0
DWIDTH 15 0
BBX 12 17 1 0
BITMAP
39C0
39C0
39C0
0000
0000
1F30
30B0
6070
E030
C030
C030
C030
C030
E030
6070
30B0
1F30
ENDCHAR
STARTCHAR 00E5
ENCODING 229
SWIDTH 675 0
DWIDTH 15 0
BBX 12 19 1 0
BITMAP
0E00
1100
1100
1100
0E00
0000
0000
1F30
30B0
6070
E030
C030
C030
C030
C030
E030
6070
30B0
1F30
ENDCHAR
STARTCHAR 00E6
ENCODING 230
SWIDTH 1125 0
DWIDTH 25 0
BBX 22 12 2 0
BITMAP
1F33E0
30B430
607818
C0300C
C0300C
C03FFC
C03000
C03000
E03018
607818
30B430
1F33C0
ENDCHAR
STARTCHAR 00E7
ENCODING 231
SWIDTH 630 0
DWIDTH 14 0
BBX 12 16 1 -4
BITMAP
0FC0
3820
6010
6000
C000
C000
C000
C000
6000
6010
3820
0FC0
0200
0380
0180
0F00
ENDCHAR
STARTCHAR 00E8
ENCODING 232
SWIDTH 630 0
DWIDTH 14 0
BBX 12 17 1 0
BITMAP
0C00
0600
0300
0000
0000
1F80
30C0
6060
6030
C030
FFF0
C000
C000
C060
6060
30C0
1F80
ENDCHAR
STARTCHAR 00E9
ENCODING 233
SWIDTH 630 0
DWIDTH 14 0
BBX 12 17 1 0
BITMAP
0300
0600
0C00
0000
0000
1F80
30C0
6060
6030
C030
FFF0
C000
C000
C060
6060
30C0
1F80
ENDCHAR
STARTCHAR 00EA
ENCODING 234
SWIDTH 630 0
DWIDTH 14 0
BBX 12 17 1 0
BITMAP
0600
0F00
1980
0000
0000
1F80
30C0
6060
6030
C030
FFF0
C000
C000
C060
6060
30C0
1F80
ENDCHAR
STARTCHAR 00EB
ENCODING 235
SWIDTH 630 0
DWIDTH 14 0
BBX 12 17 1 0
BITMAP
39C0
39C0
39C0
0000
0000
1F80
30C0
6060
6030
C030
FFF0
C000
C000
C060
6060
30C0
1F80
ENDCHAR
STARTCHAR 00EC
ENCODING 236
SWIDTH 270 0
DWIDTH 6 0
BBX 4 17 0 0
BITMAP
C0
60
30
00
00
30
30
30
30
30
30
30
30
30
30
30
30
ENDCHAR
STARTCHAR 00ED
ENCODING 237
SWIDTH 270 0
DWIDTH 6 0
BBX 4 17 1 0
BITMAP
30
60
C0
00
00
60
60
60
60
60
60
60
60
60
60
60
60
ENDCHAR
STARTCHAR 00EE
ENCODING 238
SWIDTH 270 0
DWIDTH 6 0
BBX 6 17 0 0
BITMAP
30
78
CC
00
00
30
30
30
30
30
30
30
30
30
30
30
30
ENDCHAR
STARTCHAR 00EF
ENCODING 239
SWIDTH 270 0
DWIDTH 6 0
BBX 8 17 -1 0
BITMAP
E7
E7
E7
00
00
18
18
18
18
18
18
18
18
18
18
18
18
ENDCHAR
STARTCHAR 00F0
ENCODING 240
SWIDTH 630 0
DWIDTH 14 0
BBX 12 16 1 0
BITMAP
0F80
1F00
1B80
0180
1FC0
30E0
6060
C070
C030
C030
C030
C030
6060
6060
30C0
0F00
ENDCHAR
STARTCHAR 00F1
ENCODING 241
SWIDTH 585 0
DWIDTH 13 0
BBX 11 16 1 0
BITMAP
3880
4700
0000
0000
CF80
D0C0
E060
C060
C060
C060
C060
C060
C060
C060
C060
C060
ENDCHAR
STARTCHAR 00F2
ENCODING 242
SWIDTH 630 0
DWIDTH 14 0
BBX 12 17 1 0
BITMAP
0C00
0600
0300
0000
0000
0F00
30C0
6060
6060
C030
C030
C030
C030
6060
6060
30C0
1F80
ENDCHAR
STARTCHAR 00F3
ENCODING 243
SWIDTH 630 0
DWIDTH 14 0
BBX 12 17 1 0
BITMAP
0300
0600
0C00
0000
0000
0F00
30C0
6060
6060
C030
C030
C030
C030
6060
6060
30C0
1F80
ENDCHAR
STARTCHAR 00F4
ENCODING 244
SWIDTH 630 0
DWIDTH 14 0
BBX 12 17 1 0
BITMAP
0600
0F00
1980
0000
0000
0F00
30C0
6060
6060
C030
C030
C030
C030
6060
6060
30C0
1F80
ENDCHAR
STARTCHAR 00F5
ENCODING 245
SWIDTH 630 0
DWIDTH 14 0
BBX 12 16 1 0
BITMAP
1C40
2380
0000
0000
0F00
30C0
6060
6060
C030
C030
C030
C030
6060
6060
30C0
1F80
ENDCHAR
STARTCHAR 00F6
ENCODING 246
SWIDTH 630 0
DWIDTH 14 0
BBX 12 17 1 0
BITMAP
39C0
39C0
39C0
0000
0000
0F00
30C0
6060
6060
C030
C030
C030
C030
6060
6060
30C0
1F80
ENDCHAR
STARTCHAR 00F7
ENCODING 247
SWIDTH 495 0
DWIDTH 11 0
BBX 10 10 0 3
BITMAP
0C00
0C00
0000
0000
FFC0
FFC0
0000
0000
0C00
0C00
ENDCHAR
STARTCHAR 00F8
ENCODING 248
SWIDTH 630 0
DWIDTH 14 0
BBX 12 13 1 -1
BITMAP
1F20
31F0
6060
60E0
C1B0
C330
C730
C630
4C70
7860
30C0
7F80
2000
ENDCHAR
STARTCHAR 00F9
ENCODING 249
SWIDTH 585 0
DWIDTH 13 0
BBX 9 17 2 0
BITMAP
3000
1800
0C00
0000
0000
C180
C180
C180
C180
C180
C180
C180
C180
C180
4100
6300
3E00
ENDCHAR
STARTCHAR 00FA
ENCODING 250
SWIDTH 585 0
DWIDTH 13 0
BBX 9 17 2 0
BITMAP
0600
0C00
1800
0000
0000
C180
C180
C180
C180
C180
C180
C180
C180
C180
4100
6300
3E00
ENDCHAR
STARTCHAR 00FB
ENCODING 251
SWIDTH 585 0
DWIDTH 13 0
BBX 9 17 2 0
BITMAP
1800
3C00
6600
0000
0000
C180
C180
C180
C180
C180
C180
C180
C180
C180
4100
6300
3E00
ENDCHAR
STARTCHAR 00FC
ENCODING 252
SWIDTH 585 0
DWIDTH 13 0
BBX 9 17 2 0
BITMAP
E700
E700
E700
0000
0000
C180
C180
C180
C180
C180
C180
C180
C180
C180
4100
6300
3E00
ENDCHAR
STARTCHAR 00FD
ENCODING 253
SWIDTH 585 0
DWIDTH 13 0
BBX 12 21 0 -4
BITMAP
0300
0600
0C00
0000
0000
C030
6060
6060
30C0
30C0
3180
1980
1B00
0F00
0E00
0600
0C00
0C00
1800
1800
3000
ENDCHAR
STARTCHAR 00FE
ENCODING 254
SWIDTH 675 0
DWIDTH 15 0
BBX 12 20 2 -4
BITMAP
C000
C000
C000
C000
CF80
D0C0
E060
C070
C030
C030
C030
C030
C070
E060
D0C0
CF80
C000
C000
C000
C000
ENDCHAR
STARTCHAR 00FF
ENCODING 255
SWIDTH 585 0
DWIDTH 13 0
BBX 12 21 0 -4
BITMAP
39C0
39C0
39C0
0000
0000
C030
6060
6060
30C0
30C0
3180
1980
1B00
0F00
0E00
0600
0C00
0C00
1800
1800
3000
ENDCHAR
STARTCHAR 0100
ENCODING 256
SWIDTH 765 0
DWIDTH 17 0
BBX 15 19 1 0
BITMAP
0FF0
0000
0000
0100
0380
0380
06C0
06C0
06C0
0C60
0C60
1830
1FF0
3018
3018
3018
600C
600C
C006
ENDCHAR
STARTCHAR 0101
ENCODING 257
SWIDTH 675 0
DWIDTH 15 0
BBX 12 15 1 0
BITMAP
1FE0
0000
0000
1F30
30B0
6070
E030
C030
C030
C030
C030
E030
6070
30B0
1F30
ENDCHAR
STARTCHAR 0102
ENCODING 258
SWIDTH 765 0
DWIDTH 17 0
BBX 15 19 1 0
BITMAP
0C60
07C0
0000
0100
0380
0380
06C0
06C0
06C0
0C60
0C60
1830
1FF0
3018
3018
3018
600C
600C
C006
ENDCHAR
STARTCHAR 0103
ENCODING 259
SWIDTH 675 0
DWIDTH 15 0
BBX 12 16 1 0
BITMAP
3180
1F00
0000
0000
1F30
30B0
6070
E030
C030
C030
C030
C030
E030
6070
30B0
1F30
ENDCHAR
STARTCHAR 0104
ENCODING 260
SWIDTH 765 0
DWIDTH 17 0
BBX 16 20 1 -4
BITMAP
0100
0380
0380
06C0
06C0
06C0
0C60
0C60
1830
1FF0
3018
3018
3018
600C
600C
C006
0006
000C
000C
0007
ENDCHAR
STARTCHAR 0105
ENCODING 261
SWIDTH 675 0
DWIDTH 15 0
BBX 13 16 1 -4
BITMAP
1F30
30B0
6070
E030
C030
C030
C030
C030
E030
6070
30B0
1F30
0030
0060
0060
0038
ENDCHAR
STARTCHAR 0106
ENCODING 262
SWIDTH 810 0
DWIDTH 18 0
BBX 14 20 2 0
BITMAP
0180
0300
0600
0000
07E0
1C38
300C
6004
6000
C000
C000
C000
C000
C000
C000
6000
6008
300C
1C30
07E0
ENDCHAR
STARTCHAR 0107
ENCODING 263
SWIDTH 630 0
DWIDTH 14 0
BBX 12 17 1 0
BITMAP
0300
0600
0C00
0000
0000
0FC0
3820
6010
6000
C000
C000
C000
C000
6000
6010
3820
0FC0
ENDCHAR
STARTCHAR 0108
ENCODING 264
SWIDTH 810 0
DWIDTH 18 0
BBX 14 20 2 0
BITMAP
0180
03C0
0660
0000
07E0
1C38
300C
6004
6000
C000
C000
C000
C000
C000
C000
6000
6008
300C
1C30
07E0
ENDCHAR
STARTCHAR 0109
ENCODING 265
SWIDTH 630 0
DWIDTH 14 0
BBX 12 17 1 0
BITMAP
0300
0780
0CC0
0000
0000
0FC0
3820
6010
6000
C000
C000
C000
C000
6000
6010
3820
0FC0
ENDCHAR
STARTCHAR 010A
ENCODING 266
SWIDTH 810 0
DWIDTH 18 0
BBX 14 20 2 0
BITMAP
0700
0700
0700
0000
07E0
1C38
300C
6004
6000
C000
C000
C000
C000
C000
C000
6000
6008
300C
1C30
07E0
ENDCHAR
STARTCHAR 010B
ENCODING 267
SWIDTH 630 0
DWIDTH 14 0
BBX 12 17 1 0
BITMAP
0E00
0E00
0E00
0000
0000
0FC0
3820
6010
6000
C000
C000
C000
C000
6000
6010
3820
0FC0
ENDCHAR
STARTCHAR 010C
ENCODING 268
SWIDTH 810 0
DWIDTH 18 0
BBX 14 20 2 0
BITMAP
0CC0
0780
0300
0000
07E0
1C38
300C
6004
6000
C000
C000
C000
C000
C000
C000
6000
6008
300C
1C30
07E0
ENDCHAR
STARTCHAR 010D
ENCODING 269
SWIDTH 630 0
DWIDTH 14 0
BBX 12 17 1 0
BITMAP
1980
0F00
0600
0000
0000
0FC0
3820
6010
6000
C000
C000
C000
C000
6000
6010
3820
0FC0
ENDCHAR
STARTCHAR 010E
ENCODING 270
SWIDTH 720 0
DWIDTH 16 0
BBX 12 20 2 0
BITMAP
6600
3C00
1800
0000
FE00
C180
C0C0
C060
C060
C030
C030
C030
C030
C030
C030
C020
C060
C0C0
C1C0
FF00
ENDCHAR
STARTCHAR 010F
ENCODING 271
SWIDTH 675 0
DWIDTH 15 0
BBX 15 16 1 0
BITMAP
0036
0036
0036
0032
1F34
30B0
6070
6030
C030
C030
C030
C030
6030
6070
30B0
1F30
ENDCHAR
STARTCHAR 0110
ENCODING 272
SWIDTH 765 0
DWIDTH 17 0
BBX 15 16 0 0
BITMAP
3FC0
3030
3018
300C
300C
3006
3006
3006
FE06
3006
3006
300C
300C
3018
3030
3FE0
ENDCHAR
STARTCHAR 0111
ENCODING 273
SWIDTH 675 0
DWIDTH 15 0
BBX 14 16 1 0
BITMAP
0030
0030
01FC
0030
1F30
30B0
6070
E030
C030
C030
C030
C030
E030
6070
30B0
1F30
ENDCHAR
STARTCHAR 0112
ENCODING 274
SWIDTH 540 0
DWIDTH 12 0
BBX 9 19 2 0
BITMAP
7F80
0000
0000
FF80
C000
C000
C000
C000
C000
C000
FF80
C000
C000
C000
C000
C000
C000
C000
FF80
ENDCHAR
STARTCHAR 0113
ENCODING 275
SWIDTH 630 0
DWIDTH 14 0
BBX 12 16 1 0
BITMAP
3FC0
0000
0000
0000
1F80
30C0
6060
6030
C030
FFF0
C000
C000
C060
6060
30C0
1F80
ENDCHAR
STARTCHAR 0114
ENCODING 276
SWIDTH 540 0
DWIDTH 12 0
BBX 9 19 2 0
BITMAP
6300
3E00
0000
FF80
C000
C000
C000
C000
C000
C000
FF80
C000
C000
C000
C000
C000
C000
C000
FF80
ENDCHAR
STARTCHAR 0115
ENCODING 277
SWIDTH 630 0
DWIDTH 14 0
BBX 12 16 1 0
BITMAP
18C0
0F80
0000
0000
1F80
30C0
6060
6030
C030
FFF0
C000
C000
C060
6060
30C0
1F80
ENDCHAR
STARTCHAR 0116
ENCODING 278
SWIDTH 540 0
DWIDTH 12 0
BBX 9 20 2 0
BITMAP
1C00
1C00
1C00
0000
FF80
C000
C000
C000
C000
C000
C000
FF80
C000
C000
C000
C000
C000
C000
C000
FF80
ENDCHAR
STARTCHAR 0117
ENCODING 279
SWIDTH 630 0
DWIDTH 14 0
BBX 12 17 1 0
BITMAP
0E00
0E00
0E00
0000
0000
1F80
30C0
6060
6030
C030
FFF0
C000
C000
C060
6060
30C0
1F80
ENDCHAR
STARTCHAR 0118
ENCODING 280
SWIDTH 540 0
DWIDTH 12 0
BBX 9 20 2 -4
BITMAP
FF80
C000
C000
C000
C000
C000
C000
FF80
C000
C000
C000
C000
C000
C000
C000
FF80
0600
0C00
0C00
0700
ENDCHAR
STARTCHAR 0119
ENCODING 281
SWIDTH 630 0
DWIDTH 14 0
BBX 12 16 1 -4
BITMAP
1F80
30C0
6060
6030
C030
FFF0
C000
C000
C060
6060
30C0
1F80
0600
0C00
0C00
0700
ENDCHAR
STARTCHAR 011A
ENCODING 282
SWIDTH 540 0
DWIDTH 12 0
BBX 9 20 2 0
BITMAP
3300
1E00
0C00
0000
FF80
C000
C000
C000
C000
C000
C000
FF80
C000
C000
C000
C000
C000
C000
C000
FF80
ENDCHAR
STARTCHAR 011B
ENCODING 283
SWIDTH 630 0
DWIDTH 14 0
BBX 12 17 1 0
BITMAP
1980
0F00
0600
0000
0000
1F80
30C0
6060
6030
C030
FFF0
C000
C000
C060
6060
30C0
1F80
ENDCHAR
STARTCHAR 011C
ENCODING 284
SWIDTH 855 0
DWIDTH 19 0
BBX 15 20 2 0
BITMAP
0180
03C0
0660
0000
07E0
1C30
301C
6008
6000
C000
C000
C000
C07E
C006
C006
600C
600C
3018
1C30
07E0
ENDCHAR
STARTCHAR 011D
ENCODING 285
SWIDTH 675 0
DWIDTH 15 0
BBX 12 21 1 -4
BITMAP
0600
0F00
1980
0000
0000
1F30
30B0
6070
6030
C030
C030
C030
C030
C030
6070
30B0
1F30
0030
C060
70C0
1F80
ENDCHAR
STARTCHAR 011E
ENCODING 286
SWIDTH 855 0
DWIDTH 19 0
BBX 15 19 2 0
BITMAP
0C60
07C0
0000
07E0
1C30
301C
6008
6000
C000
C000
C000
C07E
C006
C006
600C
600C
3018
1C30
07E0
ENDCHAR
STARTCHAR 011F
ENCODING 287
SWIDTH 675 0
DWIDTH 15 0
BBX 12 20 1 -4
BITMAP
18C0
0F80
0000
0000
1F30
30B0
6070
6030
C030
C030
C030
C030
C030
6070
30B0
1F30
0030
C060
70C0
1F80
ENDCHAR
STARTCHAR 0120
ENCODING 288
SWIDTH 855 0
DWIDTH 19 0
BBX 15 20 2 0
BITMAP
0380
0380
0380
0000
07E0
1C30
301C
6008
6000
C000
C000
C000
C07E
C006
C006
600C
600C
3018
1C30
07E0
ENDCHAR
STARTCHAR 0121
ENCODING 289
SWIDTH 675 0
DWIDTH 15 0
BBX 12 21 1 -4
BITMAP
0E00
0E00
0E00
0000
0000
1F30
30B0
6070
6030
C030
C030
C030
C030
C030
6070
30B0
1F30
0030
C060
70C0
1F80
ENDCHAR
STARTCHAR 0122
ENCODING 290
SWIDTH 855 0
DWIDTH 19 0
BBX 15 20 2 -4
BITMAP
07E0
1C30
301C
6008
6000
C000
C000
C000
C07E
C006
C006
600C
600C
3018
1C30
07E0
0080
00E0
0060
03C0
ENDCHAR
STARTCHAR 0123
ENCODING 291
SWIDTH 675 0
DWIDTH 15 0
BBX 12 24 1 -4
BITMAP
0200
0400
0400
0600
0600
0600
0000
0000
1F30
30B0
6070
6030
C030
C030
C030
C030
C030
6070
30B0
1F30
0030
C060
70C0
1F80
ENDCHAR
STARTCHAR 0124
ENCODING 292
SWIDTH 675 0
DWIDTH 15 0
BBX 11 20 2 0
BITMAP
0600
0F00
1980
0000
C060
C060
C060
C060
C060
C060
C060
FFE0
C060
C060
C060
C060
C060
C060
C060
C060
ENDCHAR
STARTCHAR 0125
ENCODING 293
SWIDTH 585 0
DWIDTH 13 0
BBX 11 20 1 0
BITMAP
0600
0F00
1980
0000
C000
C000
C000
C000
CF80
D0C0
E060
C060
C060
C060
C060
C060
C060
C060
C060
C060
ENDCHAR
STARTCHAR 0126
ENCODING 294
SWIDTH 675 0
DWIDTH 15 0
BBX 13 16 1 0
BITMAP
6030
6030
6030
FFF8
6030
6030
6030
7FF0
6030
6030
6030
6030
6030
6030
6030
6030
ENDCHAR
STARTCHAR 0127
ENCODING 295
SWIDTH 585 0
DWIDTH 13 0
BBX 13 16 -1 0
BITMAP
3000
3000
FF00
3000
33E0
3430
3818
3018
3018
3018
3018
3018
3018
3018
3018
3018
ENDCHAR
STARTCHAR 0128
ENCODING 296
SWIDTH 270 0
DWIDTH 6 0
BBX 8 19 -1 0
BITMAP
71
8E
00
18
18
18
18
18
18
18
18
18
18
18
18
18
18
18
18
ENDCHAR
STARTCHAR 0129
ENCODING 297
SWIDTH 270 0
DWIDTH 6 0
BBX 8 16 -1 0
BITMAP
71
8E
00
00
18
18
18
18
18
18
18
18
18
18
18
18
ENDCHAR
STARTCHAR 012A
ENCODING 298
SWIDTH 270 0
DWIDTH 6 0
BBX 8 19 -1 0
BITMAP
FF
00
00
18
18
18
18
18
18
18
18
18
18
18
18
18
18
18
18
ENDCHAR
STARTCHAR 012B
ENCODING 299
SWIDTH 270 0
DWIDTH 6 0
BBX 8 16 -1 0
BITMAP
FF
00
00
00
18
18
18
18
18
18
18
18
18
18
18
18
ENDCHAR
STARTCHAR 012C
ENCODING 300
SWIDTH 270 0
DWIDTH 6 0
BBX 7 19 0 0
BITMAP
C6
7C
00
30
30
30
30
30
30
30
30
30
30
30
30
30
30
30
30
ENDCHAR
STARTCHAR 012D
ENCODING 301
SWIDTH 270 0
DWIDTH 6 0
BBX 7 16 -1 0
BITMAP
C6
7C
00
00
18
18
18
18
18
18
18
18
18
18
18
18
ENDCHAR
STARTCHAR 012E
ENCODING 302
SWIDTH 270 0
DWIDTH 6 0
BBX 4 20 1 -4
BITMAP
60
60
60
60
60
60
60
60
60
60
60
60
60
60
60
60
60
C0
C0
70
ENDCHAR
STARTCHAR 012F
ENCODING 303
SWIDTH 180 0
DWIDTH 4 0
BBX 4 20 0 -4
BITMAP
60
60
00
00
60
60
60
60
60
60
60
60
60
60
60
60
60
C0
C0
70
ENDCHAR
STARTCHAR 0130
ENCODING 304
SWIDTH 270 0
DWIDTH 6 0
BBX 3 20 2 0
BITMAP
E0
E0
E0
00
C0
C0
C0
C0
C0
C0
C0
C0
C0
C0
C0
C0
C0
C0
C0
C0
ENDCHAR
STARTCHAR 0131
ENCODING 305
SWIDTH 270 0
DWIDTH 6 0
BBX 2 12 2 0
BITMAP
C0
C0
C0
C0
C0
C0
C0
C0
C0
C0
C0
C0
ENDCHAR
STARTCHAR 0132
ENCODING 306
SWIDTH 720 0
DWIDTH 16 0
BBX 12 16 2 0
BITMAP
C030
C030
C030
C030
C030
C030
C030
C030
C030
C030
C030
C030
C030
C030
CC60
C7C0
ENDCHAR
STARTCHAR 0133
ENCODING 307
SWIDTH 405 0
DWIDTH 9 0
BBX 7 20 1 -4
BITMAP
C6
C6
00
00
C6
C6
C6
C6
C6
C6
C6
C6
C6
C6
C6
C6
06
06
06
1C
ENDCHAR
STARTCHAR 0134
ENCODING 308
SWIDTH 495 0
DWIDTH 11 0
BBX 9 20 1 0
BITMAP
0600
0F00
1980
0000
0300
0300
0300
0300
0300
0300
0300
0300
0300
0300
0300
0300
0300
0300
C600
7C00
ENDCHAR
STARTCHAR 0135
ENCODING 309
SWIDTH 270 0
DWIDTH 6 0
BBX 6 21 0 -4
BITMAP
30
78
CC
00
00
30
30
30
30
30
30
30
30
30
30
30
30
30
30
30
E0
ENDCHAR
STARTCHAR 0136
ENCODING 310
SWIDTH 585 0
DWIDTH 13 0
BBX 10 20 2 -4
BITMAP
C180
C300
C600
CC00
D800
F000
E000
E000
F000
D800
CC00
C600
C700
C300
C180
C0C0
0000
1C00
0C00
3800
ENDCHAR
STARTCHAR 0137
ENCODING 311
SWIDTH 495 0
DWIDTH 11 0
BBX 9 20 2 -4
BITMAP
C000
C000
C000
C000
C300
C600
CC00
D800
F000
E000
F000
D800
CC00
C600
C300
C180
0000
1C00
0C00
3800
ENDCHAR
STARTCHAR 0138
ENCODING 312
SWIDTH 495 0
DWIDTH 11 0
BBX 9 12 2 0
BITMAP
C300
C600
CC00
D800
F000
E000
F000
D800
CC00
C600
C300
C180
ENDCHAR
STARTCHAR 0139
ENCODING 313
SWIDTH 450 0
DWIDTH 10 0
BBX 7 20 2 0
BITMAP
0C
18
30
00
C0
C0
C0
C0
C0
C0
C0
C0
C0
C0
C0
C0
C0
C0
C0
FE
ENDCHAR
STARTCHAR 013A
ENCODING 314
SWIDTH 270 0
DWIDTH 6 0
BBX 4 20 1 0
BITMAP
30
60
C0
00
60
60
60
60
60
60
60
60
60
60
60
60
60
60
60
60
ENDCHAR
STARTCHAR 013B
ENCODING 315
SWIDTH 450 0
DWIDTH 10 0
BBX 7 20 2 -4
BITMAP
C0
C0
C0
C0
C0
C0
C0
C0
C0
C0
C0
C0
C0
C0
C0
FE
00
38
18
70
ENDCHAR
STARTCHAR 013C
ENCODING 316
SWIDTH 270 0
DWIDTH 6 0
BBX 4 18 0 -2
BITMAP
30
30
30
30
30
30
30
30
30
30
30
30
30
30
30
30
00
F0
ENDCHAR
STARTCHAR 013D
ENCODING 317
SWIDTH 450 0
DWIDTH 10 0
BBX 7 16 2 0
BITMAP
D8
D8
D8
C8
C8
D0
C0
C0
C0
C0
C0
C0
C0
C0
C0
FE
ENDCHAR
STARTCHAR 013E
ENCODING 318
SWIDTH 225 0
DWIDTH 5 0
BBX 5 16 1 0
BITMAP
D8
D8
D8
C8
D0
C0
C0
C0
C0
C0
C0
C0
C0
C0
C0
C0
ENDCHAR
STARTCHAR 013F
ENCODING 319
SWIDTH 450 0
DWIDTH 10 0
BBX 7 16 2 0
BITMAP
C0
C0
C0
C0
C0
C0
C0
DC
DC
DC
C0
C0
C0
C0
C0
FE
ENDCHAR
STARTCHAR 0140
ENCODING 320
SWIDTH 270 0
DWIDTH 6 0
BBX 4 16 2 0
BITMAP
C0
C0
C0
C0
C0
C0
C0
F0
F0
F0
C0
C0
C0
C0
C0
C0
ENDCHAR
STARTCHAR 0141
ENCODING 321
SWIDTH 495 0
DWIDTH 11 0
BBX 9 16 1 0
BITMAP
3000
3000
3000
3000
3400
3C00
3800
3000
7000
F000
B000
3000
3000
3000
3000
3F80
ENDCHAR
STARTCHAR 0142
ENCODING 322
SWIDTH 315 0
DWIDTH 7 0
BBX 6 16 1 0
BITMAP
30
30
30
30
34
3C
38
70
F0
B0
30
30
30
30
30
30
ENDCHAR
STARTCHAR 0143
ENCODING 323
SWIDTH 720 0
DWIDTH 16 0
BBX 12 20 2 0
BITMAP
0600
0C00
1800
0000
8030
C030
E030
E030
F030
D830
CC30
CE30
C730
C330
C1B0
C0F0
C070
C070
C030
C010
ENDCHAR
STARTCHAR 0144
ENCODING 324
SWIDTH 585 0
DWIDTH 13 0
BBX 11 17 1 0
BITMAP
0600
0C00
1800
0000
0000
CF80
D0C0
E060
C060
C060
C060
C060
C060
C060
C060
C060
C060
ENDCHAR
STARTCHAR 0145
ENCODING 325
SWIDTH 720 0
DWIDTH 16 0
BBX 12 20 2 -4
BITMAP
8030
C030
E030
E030
F030
D830
CC30
CE30
C730
C330
C1B0
C0F0
C070
C070
C030
C010
0000
0700
0300
0E00
ENDCHAR
STARTCHAR 0146
ENCODING 326
SWIDTH 585 0
DWIDTH 13 0
BBX 11 16 1 -4
BITMAP
CF80
D0C0
E060
C060
C060
C060
C060
C060
C060
C060
C060
C060
0000
0E00
0600
1C00
ENDCHAR
STARTCHAR 0147
ENCODING 327
SWIDTH 720 0
DWIDTH 16 0
BBX 12 20 2 0
BITMAP
1980
0F00
0600
0000
8030
C030
E030
E030
F030
D830
CC30
CE30
C730
C330
C1B0
C0F0
C070
C070
C030
C010
ENDCHAR
STARTCHAR 0148
ENCODING 328
SWIDTH 585 0
DWIDTH 13 0
BBX 11 17 1 0
BITMAP
3300
1E00
0C00
0000
0000
CF80
D0C0
E060
C060
C060
C060
C060
C060
C060
C060
C060
C060
ENDCHAR
STARTCHAR 0149
ENCODING 329
SWIDTH 585 0
DWIDTH 13 0
BBX 13 16 -1 0
BITMAP
C000
C000
C000
4000
73E0
B430
3818
3018
3018
3018
3018
3018
3018
3018
3018
3018
ENDCHAR
STARTCHAR 014A
ENCODING 330
SWIDTH 765 0
DWIDTH 17 0
BBX 13 16 2 0
BITMAP
CF80
D0C0
E060
C030
C030
C018
C018
C018
C018
C018
C018
C018
C030
C830
CC60
C3C0
ENDCHAR
STARTCHAR 014B
ENCODING 331
SWIDTH 585 0
DWIDTH 13 0
BBX 9 16 2 -4
BITMAP
CE00
D300
E180
C180
C180
C180
C180
C180
C180
C180
C180
C180
0180
0180
0180
0700
ENDCHAR
STARTCHAR 014C
ENCODING 332
SWIDTH 855 0
DWIDTH 19 0
BBX 15 19 2 0
BITMAP
0FF0
0000
0000
07C0
1830
3018
600C
600C
C006
C006
C006
C006
C006
C006
600C
600C
3018
1830
07C0
ENDCHAR
STARTCHAR 014D
ENCODING 333
SWIDTH 630 0
DWIDTH 14 0
BBX 12 16 1 0
BITMAP
3FC0
0000
0000
0000
0F00
30C0
6060
6060
C030
C030
C030
C030
6060
6060
30C0
1F80
ENDCHAR
STARTCHAR 014E
ENCODING 334
SWIDTH 855 0
DWIDTH 19 0
BBX 15 19 2 0
BITMAP
0C60
07C0
0000
07C0
1830
3018
600C
600C
C006
C006
C006
C006
C006
C006
600C
600C
3018
1830
07C0
ENDCHAR
STARTCHAR 014F
ENCODING 335
SWIDTH 630 0
DWIDTH 14 0
BBX 12 16 1 0
BITMAP
18C0
0F80
0000
0000
0F00
30C0
6060
6060
C030
C030
C030
C030
6060
6060
30C0
1F80
ENDCHAR
STARTCHAR 0150
ENCODING 336
SWIDTH 855 0
DWIDTH 19 0
BBX 15 20 2 0
BITMAP
0330
0660
0CC0
0000
07C0
1830
3018
600C
600C
C006
C006
C006
C006
C006
C006
600C
600C
3018
1830
07C0
ENDCHAR
STARTCHAR 0151
ENCODING 337
SWIDTH 630 0
DWIDTH 14 0
BBX 12 17 1 0
BITMAP
0660
0CC0
1980
0000
0000
0F00
30C0
6060
6060
C030
C030
C030
C030
6060
6060
30C0
1F80
ENDCHAR
STARTCHAR 0152
ENCODING 338
SWIDTH 1170 0
DWIDTH 26 0
BBX 23 16 2 0
BITMAP
07F1FE
1C0980
380580
700380
600180
C00180
C00180
C001FE
C00180
C00180
C00180
600180
700380
300580
1C0980
07F1FE
ENDCHAR
STARTCHAR 0153
ENCODING 339
SWIDTH 1125 0
DWIDTH 25 0
BBX 23 12 1 0
BITMAP
0F81F0
38E618
603C0C
603806
C01806
C01FFE
C01800
C01800
60380C
603C08
38E618
0F83E0
ENDCHAR
STARTCHAR 0154
ENCODING 340
SWIDTH 585 0
DWIDTH 13 0
BBX 9 20 2 0
BITMAP
0C00
1800
3000
0000
FE00
C300
C180
C180
C180
C180
C300
FE00
D800
D800
CC00
CC00
C600
C700
C300
C180
ENDCHAR
STARTCHAR 0155
ENCODING 341
SWIDTH 315 0
DWIDTH 7 0
BBX 6 17 1 0
BITMAP
30
60
C0
00
00
CC
D0
E0
C0
C0
C0
C0
C0
C0
C0
C0
C0
ENDCHAR
STARTCHAR 0156
ENCODING 342
SWIDTH 585 0
DWIDTH 13 0
BBX 9 20 2 -4
BITMAP
FE00
C300
C180
C180
C180
C180
C300
FE00
D800
D800
CC00
CC00
C600
C700
C300
C180
0000
1C00
0C00
3800
ENDCHAR
STARTCHAR 0157
ENCODING 343
SWIDTH 315 0
DWIDTH 7 0
BBX 6 16 1 -4
BITMAP
CC
D0
E0
C0
C0
C0
C0
C0
C0
C0
C0
C0
00
70
30
E0
ENDCHAR
STARTCHAR 0158
ENCODING 344
SWIDTH 585 0
DWIDTH 13 0
BBX 9 20 2 0
BITMAP
6600
3C00
1800
0000
FE00
C300
C180
C180
C180
C180
C300
FE00
D800
D800
CC00
CC00
C600
C700
C300
C180
ENDCHAR
STARTCHAR 0159
ENCODING 345
SWIDTH 315 0
DWIDTH 7 0
BBX 7 17 0 0
BITMAP
CC
78
30
00
00
66
68
70
60
60
60
60
60
60
60
60
60
ENDCHAR
STARTCHAR 015A
ENCODING 346
SWIDTH 495 0
DWIDTH 11 0
BBX 10 20 0 0
BITMAP
0300
0600
0C00
0000
1F00
3180
6080
6000
6000
3000
1C00
0E00
0700
0180
01C0
00C0
40C0
C0C0
6180
1E00
ENDCHAR
STARTCHAR 015B
ENCODING 347
SWIDTH 405 0
DWIDTH 9 0
BBX 8 17 0 0
BITMAP
30
60
C0
00
00
1E
31
30
30
38
1C
0E
07
03
03
66
3C
ENDCHAR
STARTCHAR 015C
ENCODING 348
SWIDTH 495 0
DWIDTH 11 0
BBX 10 20 0 0
BITMAP
0600
0F00
1980
0000
1F00
3180
6080
6000
6000
3000
1C00
0E00
0700
0180
01C0
00C0
40C0
C0C0
6180
1E00
ENDCHAR
STARTCHAR 015D
ENCODING 349
SWIDTH 405 0
DWIDTH 9 0
BBX 7 17 1 0
BITMAP
18
3C
66
00
00
3C
62
60
60
70
38
1C
0E
06
06
CC
78
ENDCHAR
STARTCHAR 015E
ENCODING 350
SWIDTH 495 0
DWIDTH 11 0
BBX 10 20 0 -4
BITMAP
1F00
3180
6080
6000
6000
3000
1C00
0E00
0700
0180
01C0
00C0
40C0
C0C0
6180
1E00
0800
0E00
0600
3C00
ENDCHAR
STARTCHAR 015F
ENCODING 351
SWIDTH 405 0
DWIDTH 9 0
BBX 7 16 1 -4
BITMAP
3C
62
60
60
70
38
1C
0E
06
06
CC
78
10
1C
0C
78
ENDCHAR
STARTCHAR 0160
ENCODING 352
SWIDTH 495 0
DWIDTH 11 0
BBX 10 20 0 0
BITMAP
3300
1E00
0C00
0000
1F00
3180
6080
6000
6000
3000
1C00
0E00
0700
0180
01C0
00C0
40C0
C0C0
6180
1E00
ENDCHAR
STARTCHAR 0161
ENCODING 353
SWIDTH 405 0
DWIDTH 9 0
BBX 7 17 1 0
BITMAP
66
3C
18
00
00
3C
62
60
60
70
38
1C
0E
06
06
CC
78
ENDCHAR
STARTCHAR 0162
ENCODING 354
SWIDTH 495 0
DWIDTH 11 0
BBX 10 21 0 -5
BITMAP
FFC0
0C00
0C00
0C00
0C00
0C00
0C00
0C00
0C00
0C00
0C00
0C00
0C00
0C00
0C00
0C00
0000
0C00
0C00
0400
0800
ENDCHAR
STARTCHAR 0163
ENCODING 355
SWIDTH 360 0
DWIDTH 8 0
BBX 6 21 1 -5
BITMAP
30
30
30
30
FC
30
30
30
30
30
30
30
30
30
30
30
00
30
30
10
20
ENDCHAR
STARTCHAR 0164
ENCODING 356
SWIDTH 495 0
DWIDTH 11 0
BBX 10 20 0 0
BITMAP
3300
1E00
0C00
0000
FFC0
0C00
0C00
0C00
0C00
0C00
0C00
0C00
0C00
0C00
0C00
0C00
0C00
0C00
0C00
0C00
ENDCHAR
STARTCHAR 0165
ENCODING 357
SWIDTH 360 0
DWIDTH 8 0
BBX 7 16 1 0
BITMAP
36
36
32
34
FC
30
30
30
30
30
30
30
30
30
30
30
ENDCHAR
STARTCHAR 0166
ENCODING 358
SWIDTH 405 0
DWIDTH 9 0
BBX 10 16 -1 0
BITMAP
FFC0
0C00
0C00
0C00
0C00
0C00
0C00
0C00
7F80
0C00
0C00
0C00
0C00
0C00
0C00
0C00
ENDCHAR
STARTCHAR 0167
ENCODING 359
SWIDTH 315 0
DWIDTH 7 0
BBX 6 16 1 0
BITMAP
30
30
30
30
FC
30
30
30
30
FC
30
30
30
30
30
30
ENDCHAR
STARTCHAR 0168
ENCODING 360
SWIDTH 675 0
DWIDTH 15 0
BBX 11 19 2 0
BITMAP
1C40
2380
0000
C060
C060
C060
C060
C060
C060
C060
C060
C060
C060
C060
C060
C060
60C0
7180
1F00
ENDCHAR
STARTCHAR 0169
ENCODING 361
SWIDTH 585 0
DWIDTH 13 0
BBX 9 16 2 0
BITMAP
7100
8E00
0000
0000
C180
C180
C180
C180
C180
C180
C180
C180
C180
4100
6300
3E00
ENDCHAR
STARTCHAR 016A
ENCODING 362
SWIDTH 675 0
DWIDTH 15 0
BBX 11 19 2 0
BITMAP
3FC0
0000
0000
C060
C060
C060
C060
C060
C060
C060
C060
C060
C060
C060
C060
C060
60C0
7180
1F00
ENDCHAR
STARTCHAR 016B
ENCODING 363
SWIDTH 585 0
DWIDTH 13 0
BBX 9 16 2 0
BITMAP
7F80
0000
0000
0000
C180
C180
C180
C180
C180
C180
C180
C180
C180
4100
6300
3E00
ENDCHAR
STARTCHAR 016C
ENCODING 364
SWIDTH 675 0
DWIDTH 15 0
BBX 11 19 2 0
BITMAP
3180
1F00
0000
C060
C060
C060
C060
C060
C060
C060
C060
C060
C060
C060
C060
C060
60C0
7180
1F00
ENDCHAR
STARTCHAR 016D
ENCODING 365
SWIDTH 585 0
DWIDTH 13 0
BBX 9 16 2 0
BITMAP
6300
3E00
0000
0000
C180
C180
C180
C180
C180
C180
C180
C180
C180
4100
6300
3E00
ENDCHAR
STARTCHAR 016E
ENCODING 366
SWIDTH 675 0
DWIDTH 15 0
BBX 11 22 2 0
BITMAP
0E00
1100
1100
1100
0E00
0000
C060
C060
C060
C060
C060
C060
C060
C060
C060
C060
C060
C060
C060
60C0
7180
1F00
ENDCHAR
STARTCHAR 016F
ENCODING 367
SWIDTH 585 0
DWIDTH 13 0
BBX 9 19 2 0
BITMAP
1C00
2200
2200
2200
1C00
0000
0000
C180
C180
C180
C180
C180
C180
C180
C180
C180
4100
6300
3E00
ENDCHAR
STARTCHAR 0170
ENCODING 368
SWIDTH 675 0
DWIDTH 15 0
BBX 11 20 2 0
BITMAP
0CC0
1980
3300
0000
C060
C060
C060
C060
C060
C060
C060
C060
C060
C060
C060
C060
C060
60C0
7180
1F00
ENDCHAR
STARTCHAR 0171
ENCODING 369
SWIDTH 585 0
DWIDTH 13 0
BBX 9 17 2 0
BITMAP
1980
3300
6600
0000
0000
C180
C180
C180
C180
C180
C180
C180
C180
C180
4100
6300
3E00
ENDCHAR
STARTCHAR 0172
ENCODING 370
SWIDTH 675 0
DWIDTH 15 0
BBX 11 20 2 -4
BITMAP
C060
C060
C060
C060
C060
C060
C060
C060
C060
C060
C060
C060
C060
60C0
7180
1F00
0600
0C00
0C00
0700
ENDCHAR
STARTCHAR 0173
ENCODING 371
SWIDTH 585 0
DWIDTH 13 0
BBX 9 16 2 -4
BITMAP
C180
C180
C180
C180
C180
C180
C180
C180
C180
4100
6300
3E00
0C00
1800
1800
0E00
ENDCHAR
STARTCHAR 0174
ENCODING 372
SWIDTH 1035 0
DWIDTH 23 0
BBX 21 20 1 0
BITMAP
006000
00F000
019800
000000
C02018
C06018
607030
607030
60D830
30D860
318860
318C60
318C60
1B06C0
1B06C0
1B02C0
0E0380
0E0380
0C0180
0C0180
ENDCHAR
STARTCHAR 0175
ENCODING 373
SWIDTH 900 0
DWIDTH 20 0
BBX 19 17 0 0
BITMAP
006000
00F000
019800
000000
000000
C04060
60E0C0
60E0C0
61A0C0
31B180
31B180
1B1B00
1B1B00
1B0B00
0E0E00
0E0E00
0C0600
ENDCHAR
STARTCHAR 0176
ENCODING 374
SWIDTH 630 0
DWIDTH 14 0
BBX 12 20 1 0
BITMAP
0600
0F00
1980
0000
C030
6060
70E0
30C0
1980
1980
0F00
0F00
0600
0600
0600
0600
0600
0600
0600
0600
ENDCHAR
STARTCHAR 0177
ENCODING 375
SWIDTH 585 0
DWIDTH 13 0
BBX 12 21 0 -4
BITMAP
0600
0F00
1980
0000
0000
C030
6060
6060
30C0
30C0
3180
1980
1B00
0F00
0E00
0600
0C00
0C00
1800
1800
3000
ENDCHAR
STARTCHAR 0178
ENCODING 376
SWIDTH 630 0
DWIDTH 14 0
BBX 12 20 1 0
BITMAP
39C0
39C0
39C0
0000
C030
6060
70E0
30C0
1980
1980
0F00
0F00
0600
0600
0600
0600
0600
0600
0600
0600
ENDCHAR
STARTCHAR 0179
ENCODING 377
SWIDTH 495 0
DWIDTH 11 0
BBX 8 20 1 0
BITMAP
18
30
60
00
FF
06
06
06
0C
0C
0C
18
18
30
30
30
60
60
60
FF
ENDCHAR
STARTCHAR 017A
ENCODING 378
SWIDTH 405 0
DWIDTH 9 0
BBX 9 17 0 0
BITMAP
0C00
1800
3000
0000
0000
7F80
0300
0300
0600
0C00
0C00
1800
1800
3000
6000
6000
FF80
ENDCHAR
STARTCHAR 017B
ENCODING 379
SWIDTH 495 0
DWIDTH 11 0
BBX 8 20 1 0
BITMAP
38
38
38
00
FF
06
06
06
0C
0C
0C
18
18
30
30
30
60
60
60
FF
ENDCHAR
STARTCHAR 017C
ENCODING 380
SWIDTH 405 0
DWIDTH 9 0
BBX 9 17 0 0
BITMAP
0E00
0E00
0E00
0000
0000
7F80
0300
0300
0600
0C00
0C00
1800
1800
3000
6000
6000
FF80
ENDCHAR
STARTCHAR 017D
ENCODING 381
SWIDTH 495 0
DWIDTH 11 0
BBX 8 20 1 0
BITMAP
66
3C
18
00
FF
06
06
06
0C
0C
0C
18
18
30
30
30
60
60
60
FF
ENDCHAR
STARTCHAR 017E
ENCODING 382
SWIDTH 405 0
DWIDTH 9 0
BBX 9 17 0 0
BITMAP
3300
1E00
0C00
0000
0000
7F80
0300
0300
0600
0C00
0C00
1800
1800
3000
6000
6000
FF80
ENDCHAR
STARTCHAR 017F
ENCODING 383
SWIDTH 270 0
DWIDTH 6 0
BBX 5 16 2 0
BITMAP
78
C0
C0
C0
C0
C0
C0
C0
C0
C0
C0
C0
C0
C0
C0
C0
ENDCHAR
STARTCHAR 0192
ENCODING 402
SWIDTH 585 0
DWIDTH 13 0
BBX 11 20 0 -4
BITMAP
01E0
0320
0300
0300
0300
0300
0600
1FC0
0600
0600
0600
0600
0C00
0C00
0C00
0C00
0C00
1800
1800
F000
ENDCHAR
STARTCHAR 01FA
ENCODING 506
SWIDTH 765 0
DWIDTH 17 0
BBX 15 25 1 0
BITMAP
0180
0300
0600
0000
0000
0380
0440
0440
0440
0380
0380
0380
06C0
06C0
06C0
0C60
0C60
1830
1FF0
3018
3018
3018
600C
600C
C006
ENDCHAR
STARTCHAR 01FB
ENCODING 507
SWIDTH 675 0
DWIDTH 15 0
BBX 12 24 1 0
BITMAP
0600
0C00
1800
0000
0000
0E00
1100
1100
1100
0E00
0000
0000
1F30
30B0
6070
E030
C030
C030
C030
C030
E030
6070
30B0
1F30
ENDCHAR
STARTCHAR 01FC
ENCODING 508
SWIDTH 990 0
DWIDTH 22 0
BBX 20 20 0 0
BITMAP
000300
000600
000C00
000000
007FF0
007800
00D800
00D800
019800
031800
031800
061FF0
061800
0C1800
1FF800
181800
301800
301800
601800
C01FF0
ENDCHAR
STARTCHAR 01FD
ENCODING 509
SWIDTH 1125 0
DWIDTH 25 0
BBX 22 17 2 0
BITMAP
001800
003000
006000
000000
000000
1F33E0
30B430
607818
C0300C
C0300C
C03FFC
C03000
C03000
E03018
607818
30B430
1F33C0
ENDCHAR
STARTCHAR 01FE
ENCODING 510
SWIDTH 855 0
DWIDTH 19 0
BBX 15 20 2 0
BITMAP
0180
0300
0600
0000
07CE
187C
3018
603C
603C
C066
C0C6
C186
C186
C306
C606
6C0C
2C0C
3818
3C30
77E0
ENDCHAR
STARTCHAR 01FF
ENCODING 511
SWIDTH 630 0
DWIDTH 14 0
BBX 12 18 1 -1
BITMAP
0300
0600
0C00
0000
0000
1F20
31F0
6060
60E0
C1B0
C330
C730
C630
4C70
7860
30C0
7F80
2000
ENDCHAR
STARTCHAR 02C6
ENCODING 710
SWIDTH 495 0
DWIDTH 11 0
BBX 6 3 2 14
BITMAP
30
78
CC
ENDCHAR
STARTCHAR 02C7
ENCODING 711
SWIDTH 495 0
DWIDTH 11 0
BBX 6 3 2 14
BITMAP
CC
78
30
ENDCHAR
STARTCHAR 02C9
ENCODING 713
SWIDTH 495 0
DWIDTH 11 0
BBX 8 1 1 15
BITMAP
FF
ENDCHAR
STARTCHAR 02D8
ENCODING 728
SWIDTH 450 0
DWIDTH 10 0
BBX 7 2 1 14
BITMAP
C6
7C
ENDCHAR
STARTCHAR 02D9
ENCODING 729
SWIDTH 225 0
DWIDTH 5 0
BBX 3 3 1 14
BITMAP
E0
E0
E0
ENDCHAR
STARTCHAR 02DA
ENCODING 730
SWIDTH 315 0
DWIDTH 7 0
BBX 5 5 1 13
BITMAP
70
88
88
88
70
ENDCHAR
STARTCHAR 02DB
ENCODING 731
SWIDTH 315 0
DWIDTH 7 0
BBX 4 4 2 -4
BITMAP
60
C0
C0
70
ENDCHAR
STARTCHAR 02DC
ENCODING 732
SWIDTH 450 0
DWIDTH 10 0
BBX 8 2 1 14
BITMAP
71
8E
ENDCHAR
STARTCHAR 02DD
ENCODING 733
SWIDTH 540 0
DWIDTH 12 0
BBX 8 3 3 14
BITMAP
33
66
CC
ENDCHAR
STARTCHAR 037E
ENCODING 894
SWIDTH 270 0
DWIDTH 6 0
BBX 3 14 1 -2
BITMAP
E0
E0
E0
00
00
00
00
00
00
60
60
40
C0
80
ENDCHAR
STARTCHAR 0384
ENCODING 900
SWIDTH 360 0
DWIDTH 8 0
BBX 2 4 3 14
BITMAP
C0
C0
C0
C0
ENDCHAR
STARTCHAR 0385
ENCODING 901
SWIDTH 360 0
DWIDTH 8 0
BBX 8 4 0 13
BITMAP
18
18
DB
DB
ENDCHAR
STARTCHAR 0386
ENCODING 902
SWIDTH 765 0
DWIDTH 17 0
BBX 15 16 1 0
BITMAP
3100
3380
3380
36C0
06C0
06C0
0C60
0C60
1830
1FF0
3018
3018
3018
600C
600C
C006
ENDCHAR
STARTCHAR 0387
ENCODING 903
SWIDTH 270 0
DWIDTH 6 0
BBX 3 3 2 9
BITMAP
E0
E0
E0
ENDCHAR
STARTCHAR 0388
ENCODING 904
SWIDTH 585 0
DWIDTH 13 0
BBX 13 16 -1 0
BITMAP
CFF8
CC00
CC00
0C00
0C00
0C00
0C00
0FF8
0C00
0C00
0C00
0C00
0C00
0C00
0C00
0FF8
ENDCHAR
STARTCHAR 0389
ENCODING 905
SWIDTH 720 0
DWIDTH 16 0
BBX 15 16 -1 0
BITMAP
CC06
CC06
CC06
0C06
0C06
0C06
0C06
0FFE
0C06
0C06
0C06
0C06
0C06
0C06
0C06
0C06
ENDCHAR
STARTCHAR 038A
ENCODING 906
SWIDTH 270 0
DWIDTH 6 0
BBX 5 16 -1 0
BITMAP
D8
D8
D8
D8
18
18
18
18
18
18
18
18
18
18
18
18
ENDCHAR
STARTCHAR 038C
ENCODING 908
SWIDTH 855 0
DWIDTH 19 0
BBX 18 16 -1 0
BITMAP
C0F800
C30600
C60300
0C0180
0C0180
1800C0
1800C0
1800C0
1800C0
1800C0
1800C0
0C0180
0C0180
060300
030600
00F800
ENDCHAR
STARTCHAR 038E
ENCODING 910
SWIDTH 630 0
DWIDTH 14 0
BBX 15 16 -1 0
BITMAP
D806
CC0C
8E1C
8618
0330
0330
01E0
01E0
00C0
00C0
00C0
00C0
00C0
00C0
00C0
00C0
ENDCHAR
STARTCHAR 038F
ENCODING 911
SWIDTH 810 0
DWIDTH 18 0
BBX 17 16 -1 0
BITMAP
C1F800
C70E00
CC0300
0C0300
180180
180180
180180
180180
180180
180380
0C0300
060600
030C00
019800
0F9F80
0F9F80
ENDCHAR
STARTCHAR 0390
ENCODING 912
SWIDTH 270 0
DWIDTH 6 0
BBX 5 17 2 0
BITMAP
C0
C0
D8
D8
00
C0
C0
C0
C0
C0
C0
C0
C0
C0
C0
C0
C0
ENDCHAR
STARTCHAR 0391
ENCODING 913
SWIDTH 765 0
DWIDTH 17 0
BBX 15 16 1 0
BITMAP
0100
0380
0380
06C0
06C0
06C0
0C60
0C60
1830
1FF0
3018
3018
3018
600C
600C
C006
ENDCHAR
STARTCHAR 0392
ENCODING 914
SWIDTH 585 0
DWIDTH 13 0
BBX 9 16 2 0
BITMAP
FC00
C600
C300
C300
C300
C300
C600
FC00
C300
C380
C180
C180
C180
C180
C300
FE00
ENDCHAR
STARTCHAR 0393
ENCODING 915
SWIDTH 450 0
DWIDTH 10 0
BBX 8 16 2 0
BITMAP
FF
C0
C0
C0
C0
C0
C0
C0
C0
C0
C0
C0
C0
C0
C0
C0
ENDCHAR
STARTCHAR 0394
ENCODING 916
SWIDTH 720 0
DWIDTH 16 0
BBX 16 16 0 0
BITMAP
0180
0180
03C0
03C0
0660
0660
0C30
0C30
1818
1818
300C
300C
7006
6006
FFFF
FFFF
ENDCHAR
STARTCHAR 0395
ENCODING 917
SWIDTH 540 0
DWIDTH 12 0
BBX 9 16 2 0
BITMAP
FF80
C000
C000
C000
C000
C000
C000
FF80
C000
C000
C000
C000
C000
C000
C000
FF80
ENDCHAR
STARTCHAR 0396
ENCODING 918
SWIDTH 495 0
DWIDTH 11 0
BBX 8 16 1 0
BITMAP
FF
06
06
06
0C
0C
0C
18
18
30
30
30
60
60
60
FF
ENDCHAR
STARTCHAR 0397
ENCODING 919
SWIDTH 675 0
DWIDTH 15 0
BBX 11 16 2 0
BITMAP
C060
C060
C060
C060
C060
C060
C060
FFE0
C060
C060
C060
C060
C060
C060
C060
C060
ENDCHAR
STARTCHAR 0398
ENCODING 920
SWIDTH 855 0
DWIDTH 19 0
BBX 15 16 2 0
BITMAP
07C0
1830
3018
600C
600C
C006
C006
CFE6
CFE6
C006
C006
600C
600C
3018
1830
07C0
ENDCHAR
STARTCHAR 0399
ENCODING 921
SWIDTH 270 0
DWIDTH 6 0
BBX 2 16 2 0
BITMAP
C0
C0
C0
C0
C0
C0
C0
C0
C0
C0
C0
C0
C0
C0
C0
C0
ENDCHAR
STARTCHAR 039A
ENCODING 922
SWIDTH 585 0
DWIDTH 13 0
BBX 10 16 2 0
BITMAP
C180
C300
C600
CC00
D800
F000
E000
E000
F000
D800
CC00
C600
C700
C300
C180
C0C0
ENDCHAR
STARTCHAR 039B
ENCODING 923
SWIDTH 675 0
DWIDTH 15 0
BBX 15 16 0 0
BITMAP
0100
0380
0380
07C0
06C0
06C0
0C60
0C60
1830
1830
3018
3018
3018
600C
600C
C006
ENDCHAR
STARTCHAR 039C
ENCODING 924
SWIDTH 1035 0
DWIDTH 23 0
BBX 19 16 2 0
BITMAP
200080
300180
300180
380380
7803C0
6C06C0
6C06C0
660CC0
660CC0
6318C0
6318C0
61B0C0
C1B060
C0E060
C0E060
C04060
ENDCHAR
STARTCHAR 039D
ENCODING 925
SWIDTH 720 0
DWIDTH 16 0
BBX 12 16 2 0
BITMAP
8030
C030
E030
E030
F030
D830
CC30
CE30
C730
C330
C1B0
C0F0
C070
C070
C030
C010
ENDCHAR
STARTCHAR 039E
ENCODING 926
SWIDTH 540 0
DWIDTH 12 0
BBX 8 16 2 0
BITMAP
FF
FF
00
00
00
00
FF
FF
00
00
00
00
00
00
FF
FF
ENDCHAR
STARTCHAR 039F
ENCODING 927
SWIDTH 855 0
DWIDTH 19 0
BBX 15 16 2 0
BITMAP
07C0
1830
3018
600C
600C
C006
C006
C006
C006
C006
C006
600C
600C
3018
1830
07C0
ENDCHAR
STARTCHAR 03A0
ENCODING 928
SWIDTH 675 0
DWIDTH 15 0
BBX 11 16 2 0
BITMAP
FFE0
C060
C060
C060
C060
C060
C060
C060
C060
C060
C060
C060
C060
C060
C060
C060
ENDCHAR
STARTCHAR 03A1
ENCODING 929
SWIDTH 585 0
DWIDTH 13 0
BBX 9 16 2 0
BITMAP
FE00
C300
C180
C180
C180
C180
C300
FE00
C000
C000
C000
C000
C000
C000
C000
C000
ENDCHAR
STARTCHAR 03A3
ENCODING 931
SWIDTH 495 0
DWIDTH 11 0
BBX 9 16 1 0
BITMAP
FF80
6000
6000
3000
3000
1800
1800
0C00
0800
0800
1000
2000
2000
4000
7F80
FF80
ENDCHAR
STARTCHAR 03A4
ENCODING 932
SWIDTH 495 0
DWIDTH 11 0
BBX 10 16 0 0
BITMAP
FFC0
0C00
0C00
0C00
0C00
0C00
0C00
0C00
0C00
0C00
0C00
0C00
0C00
0C00
0C00
0C00
ENDCHAR
STARTCHAR 03A5
ENCODING 933
SWIDTH 630 0
DWIDTH 14 0
BBX 12 16 1 0
BITMAP
C030
6060
70E0
30C0
1980
1980
0F00
0F00
0600
0600
0600
0600
0600
0600
0600
0600
ENDCHAR
STARTCHAR 03A6
ENCODING 934
SWIDTH 855 0
DWIDTH 19 0
BBX 16 16 2 0
BITMAP
0180
0FF0
399C
6186
6186
C183
C183
C183
C183
C183
6186
6186
399C
0FF0
0180
0180
ENDCHAR
STARTCHAR 03A7
ENCODING 935
SWIDTH 585 0
DWIDTH 13 0
BBX 12 16 0 0
BITMAP
C030
6060
6060
30C0
1980
1980
0F00
0600
0600
0F00
1980
1980
30C0
6060
6060
C030
ENDCHAR
STARTCHAR 03A8
ENCODING 936
SWIDTH 810 0
DWIDTH 18 0
BBX 14 16 2 0
BITMAP
C30C
C30C
C30C
C30C
C30C
C30C
C30C
C30C
C30C
6318
3330
1FE0
0300
0300
0300
0300
ENDCHAR
STARTCHAR 03A9
ENCODING 937
SWIDTH 810 0
DWIDTH 18 0
BBX 14 16 2 0
BITMAP
0FC0
3870
6018
6018
C00C
C00C
C00C
C00C
C00C
C01C
6018
3030
1860
0CC0
7CFC
7CFC
ENDCHAR
STARTCHAR 03AA
ENCODING 938
SWIDTH 270 0
DWIDTH 6 0
BBX 8 20 -1 0
BITMAP
E7
E7
E7
00
18
18
18
18
18
18
18
18
18
18
18
18
18
18
18
18
ENDCHAR
STARTCHAR 03AB
ENCODING 939
SWIDTH 630 0
DWIDTH 14 0
BBX 12 20 1 0
BITMAP
39C0
39C0
39C0
0000
C030
6060
70E0
30C0
1980
1980
0F00
0F00
0600
0600
0600
0600
0600
0600
0600
0600
ENDCHAR
STARTCHAR 03AC
ENCODING 940
SWIDTH 675 0
DWIDTH 15 0
BBX 12 17 1 0
BITMAP
0600
0600
0600
0000
0000
1F30
30B0
6070
E030
C030
C030
C030
C030
E030
6070
30B0
1F30
ENDCHAR
STARTCHAR 03AD
ENCODING 941
SWIDTH 405 0
DWIDTH 9 0
BBX 8 17 1 0
BITMAP
18
18
18
00
00
3E
61
60
60
60
3C
60
C0
C0
C0
61
3E
ENDCHAR
STARTCHAR 03AE
ENCODING 942
SWIDTH 585 0
DWIDTH 13 0
BBX 11 21 1 -4
BITMAP
0C00
0C00
0C00
0000
0000
CF80
D0C0
E060
C060
C060
C060
C060
C060
C060
C060
C060
C060
0060
0060
0060
0060
ENDCHAR
STARTCHAR 03AF
ENCODING 943
SWIDTH 270 0
DWIDTH 6 0
BBX 2 18 2 0
BITMAP
C0
C0
C0
C0
00
00
C0
C0
C0
C0
C0
C0
C0
C0
C0
C0
C0
C0
ENDCHAR
STARTCHAR 03B0
ENCODING 944
SWIDTH 585 0
DWIDTH 13 0
BBX 11 17 1 0
BITMAP
0600
0600
36C0
36C0
0000
C300
C180
C0C0
C0E0
C060
C060
C060
C060
C060
60C0
7180
1F00
ENDCHAR
STARTCHAR 03B1
ENCODING 945
SWIDTH 675 0
DWIDTH 15 0
BBX 12 12 1 0
BITMAP
1F30
30B0
6070
E030
C030
C030
C030
C030
E030
6070
30B0
1F30
ENDCHAR
STARTCHAR 03B2
ENCODING 946
SWIDTH 585 0
DWIDTH 13 0
BBX 10 20 2 -4
BITMAP
3C00
6700
C300
C300
C300
C600
DE00
C380
C180
C0C0
C0C0
C0C0
C0C0
E180
E380
DE00
C000
C000
C000
C000
ENDCHAR
STARTCHAR 03B3
ENCODING 947
SWIDTH 540 0
DWIDTH 12 0
BBX 12 16 0 -4
BITMAP
C030
C030
6060
6060
30C0
30C0
1980
1980
0F00
0F00
0600
0600
0600
0600
0600
0600
ENDCHAR
STARTCHAR 03B4
ENCODING 948
SWIDTH 585 0
DWIDTH 13 0
BBX 11 16 1 0
BITMAP
0F80
1F80
3000
2000
2000
1800
1F00
3180
60C0
C060
C060
C060
C060
60C0
3180
1F00
ENDCHAR
STARTCHAR 03B5
ENCODING 949
SWIDTH 405 0
DWIDTH 9 0
BBX 8 12 1 0
BITMAP
3E
61
60
60
60
3C
60
C0
C0
C0
61
3E
ENDCHAR
STARTCHAR 03B6
ENCODING 950
SWIDTH 450 0
DWIDTH 10 0
BBX 9 20 1 -4
BITMAP
7F80
7F80
0300
0600
0C00
1800
3000
6000
4000
C000
C000
C000
E000
7000
3E00
0F80
0180
0080
0100
1E00
ENDCHAR
STARTCHAR 03B7
ENCODING 951
SWIDTH 585 0
DWIDTH 13 0
BBX 11 16 1 -4
BITMAP
CF80
D0C0
E060
C060
C060
C060
C060
C060
C060
C060
C060
C060
0060
0060
0060
0060
ENDCHAR
STARTCHAR 03B8
ENCODING 952
SWIDTH 630 0
DWIDTH 14 0
BBX 12 16 1 0
BITMAP
0F00
30C0
6060
6060
E070
C030
C030
C030
FFF0
C030
C030
C030
6060
6060
30C0
0F00
ENDCHAR
STARTCHAR 03B9
ENCODING 953
SWIDTH 270 0
DWIDTH 6 0
BBX 2 12 2 0
BITMAP
C0
C0
C0
C0
C0
C0
C0
C0
C0
C0
C0
C0
ENDCHAR
STARTCHAR 03BA
ENCODING 954
SWIDTH 495 0
DWIDTH 11 0
BBX 9 12 2 0
BITMAP
C300
C600
CC00
D800
F000
E000
F000
D800
CC00
C600
C300
C180
ENDCHAR
STARTCHAR 03BB
ENCODING 955
SWIDTH 540 0
DWIDTH 12 0
BBX 12 16 0 0
BITMAP
1800
1800
0C00
0C00
0600
0600
0700
0F00
0D80
1980
18C0
30C0
3060
6060
6030
C030
ENDCHAR
STARTCHAR 03BC
ENCODING 956
SWIDTH 585 0
DWIDTH 13 0
BBX 11 16 1 -4
BITMAP
C060
C060
C060
C060
C060
C060
C060
C060
C060
C0E0
E160
DE60
C000
C000
C000
C000
ENDCHAR
STARTCHAR 03BD
ENCODING 957
SWIDTH 585 0
DWIDTH 13 0
BBX 11 12 1 0
BITMAP
C060
60C0
60C0
60C0
3180
3180
1B00
1B00
0E00
0E00
0E00
0400
ENDCHAR
STARTCHAR 03BE
ENCODING 958
SWIDTH 450 0
DWIDTH 10 0
BBX 9 20 1 -4
BITMAP
1F80
3F80
7000
6000
6000
6000
3000
1F00
7000
4000
C000
C000
C000
7000
7E00
1F00
0180
0080
0180
0F00
ENDCHAR
STARTCHAR 03BF
ENCODING 959
SWIDTH 630 0
DWIDTH 14 0
BBX 12 12 1 0
BITMAP
0F00
30C0
6060
6060
C030
C030
C030
C030
6060
6060
30C0
1F80
ENDCHAR
STARTCHAR 03C0
ENCODING 960
SWIDTH 675 0
DWIDTH 15 0
BBX 13 12 1 0
BITMAP
FFF8
3060
3060
3060
3060
3060
3060
3060
3060
3060
3060
3060
ENDCHAR
STARTCHAR 03C1
ENCODING 961
SWIDTH 675 0
DWIDTH 15 0
BBX 12 16 2 -4
BITMAP
0F00
30C0
6060
6060
C030
C030
C030
C030
C070
E060
D0C0
CF80
C000
C000
C000
C000
ENDCHAR
STARTCHAR 03C2
ENCODING 962
SWIDTH 585 0
DWIDTH 13 0
BBX 11 16 1 -4
BITMAP
1F80
30C0
6060
4000
C000
C000
C000
C000
E000
7800
3F80
0FC0
00C0
0040
0080
0F00
ENDCHAR
STARTCHAR 03C3
ENCODING 963
SWIDTH 720 0
DWIDTH 16 0
BBX 14 12 1 0
BITMAP
0FFC
30C0
6060
6070
C030
C030
C030
C030
E060
6060
30C0
1F00
ENDCHAR
STARTCHAR 03C4
ENCODING 964
SWIDTH 405 0
DWIDTH 9 0
BBX 7 12 1 0
BITMAP
FE
30
30
30
30
30
30
30
30
30
30
30
ENDCHAR
STARTCHAR 03C5
ENCODING 965
SWIDTH 585 0
DWIDTH 13 0
BBX 11 12 1 0
BITMAP
C300
C180
C0C0
C0E0
C060
C060
C060
C060
C060
60C0
7180
1F00
ENDCHAR
STARTCHAR 03C6
ENCODING 966
SWIDTH 765 0
DWIDTH 17 0
BBX 15 16 1 -4
BITMAP
13E0
3338
630C
C30C
C306
C306
C306
C306
C30C
630C
3338
0FE0
0300
0300
0300
0300
ENDCHAR
STARTCHAR 03C7
ENCODING 967
SWIDTH 495 0
DWIDTH 11 0
BBX 11 16 0 -4
BITMAP
60C0
3180
3180
1B00
1B00
0E00
0E00
0E00
0E00
1B00
1B00
3180
3180
60C0
60C0
C060
ENDCHAR
STARTCHAR 03C8
ENCODING 968
SWIDTH 720 0
DWIDTH 16 0
BBX 14 16 1 -4
BITMAP
C30C
C30C
C30C
C30C
C30C
C30C
C30C
C30C
C30C
6318
3330
1FE0
0300
0300
0300
0300
ENDCHAR
STARTCHAR 03C9
ENCODING 969
SWIDTH 855 0
DWIDTH 19 0
BBX 17 12 1 0
BITMAP
0C3800
300C00
600300
400300
C00180
C18180
C18180
C18180
C18180
618300
63C700
1E3C00
ENDCHAR
STARTCHAR 03CA
ENCODING 970
SWIDTH 270 0
DWIDTH 6 0
BBX 8 17 -1 0
BITMAP
E7
E7
E7
00
00
18
18
18
18
18
18
18
18
18
18
18
18
ENDCHAR
STARTCHAR 03CB
ENCODING 971
SWIDTH 585 0
DWIDTH 13 0
BBX 11 17 1 0
BITMAP
7380
7380
7380
0000
0000
C300
C180
C0C0
C0E0
C060
C060
C060
C060
C060
60C0
7180
1F00
ENDCHAR
STARTCHAR 03CC
ENCODING 972
SWIDTH 630 0
DWIDTH 14 0
BBX 12 17 1 0
BITMAP
0600
0600
0600
0000
0000
0F00
30C0
6060
6060
C030
C030
C030
C030
6060
6060
30C0
1F80
ENDCHAR
STARTCHAR 03CD
ENCODING 973
SWIDTH 585 0
DWIDTH 13 0
BBX 11 17 1 0
BITMAP
0600
0600
0600
0000
0000
C300
C180
C0C0
C0E0
C060
C060
C060
C060
C060
60C0
7180
1F00
ENDCHAR
STARTCHAR 03CE
ENCODING 974
SWIDTH 855 0
DWIDTH 19 0
BBX 17 17 1 0
BITMAP
018000
018000
018000
000000
000000
0C3800
300C00
600300
400300
C00180
C18180
C18180
C18180
C18180
618300
63C700
1E3C00
ENDCHAR
STARTCHAR 0401
ENCODING 1025
SWIDTH 540 0
DWIDTH 12 0
BBX 9 20 2 0
BITMAP
E700
E700
E700
0000
FF80
C000
C000
C000
C000
C000
C000
FF80
C000
C000
C000
C000
C000
C000
C000
FF80
ENDCHAR
STARTCHAR 0402
ENCODING 1026
SWIDTH 675 0
DWIDTH 15 0
BBX 13 16 0 0
BITMAP
FFC0
0C00
0C00
0C00
0C00
0C00
0C00
0FE0
0C30
0C18
0C18
0C18
0C18
0C18
0CB0
0CF0
ENDCHAR
STARTCHAR 0403
ENCODING 1027
SWIDTH 450 0
DWIDTH 10 0
BBX 8 20 2 0
BITMAP
06
0C
18
00
FF
C0
C0
C0
C0
C0
C0
C0
C0
C0
C0
C0
C0
C0
C0
C0
ENDCHAR
STARTCHAR 0404
ENCODING 1028
SWIDTH 810 0
DWIDTH 18 0
BBX 14 16 2 0
BITMAP
07E0
1C38
300C
6004
6000
C000
C000
FF00
C000
C000
C000
6000
6000
300C
1C38
07E0
ENDCHAR
STARTCHAR 0405
ENCODING 1029
SWIDTH 495 0
DWIDTH 11 0
BBX 10 16 0 0
BITMAP
1F00
3180
6080
6000
6000
3000
1C00
0E00
0700
0180
01C0
00C0
40C0
C0C0
6180
1E00
ENDCHAR
STARTCHAR 0406
ENCODING 1030
SWIDTH 270 0
DWIDTH 6 0
BBX 2 16 2 0
BITMAP
C0
C0
C0
C0
C0
C0
C0
C0
C0
C0
C0
C0
C0
C0
C0
C0
ENDCHAR
STARTCHAR 0407
ENCODING 1031
SWIDTH 270 0
DWIDTH 6 0
BBX 8 20 -1 0
BITMAP
E7
E7
E7
00
18
18
18
18
18
18
18
18
18
18
18
18
18
18
18
18
ENDCHAR
STARTCHAR 0408
ENCODING 1032
SWIDTH 495 0
DWIDTH 11 0
BBX 8 16 1 0
BITMAP
03
03
03
03
03
03
03
03
03
03
03
03
03
03
C6
7C
ENDCHAR
STARTCHAR 0409
ENCODING 1033
SWIDTH 1035 0
DWIDTH 23 0
BBX 21 16 0 0
BITMAP
010000
038000
038000
06C000
06C000
06C000
0C6000
0C7FE0
183030
183018
301818
301818
601818
600C18
C00C30
C007E0
ENDCHAR
STARTCHAR 040A
ENCODING 1034
SWIDTH 1035 0
DWIDTH 23 0
BBX 19 16 2 0
BITMAP
C06000
C06000
C06000
C06000
C06000
C06000
C06000
FFFF80
C060C0
C06060
C06060
C06060
C06060
C06060
C060C0
C07F80
ENDCHAR
STARTCHAR 040B
ENCODING 1035
SWIDTH 675 0
DWIDTH 15 0
BBX 13 16 0 0
BITMAP
FFC0
0C00
0C00
0C00
0C00
0C00
0C00
0FE0
0C30
0C18
0C18
0C18
0C18
0C18
0C18
0C18
ENDCHAR
STARTCHAR 040C
ENCODING 1036
SWIDTH 585 0
DWIDTH 13 0
BBX 10 20 2 0
BITMAP
0600
0C00
1800
0000
C180
C300
C600
CC00
D800
F000
E000
E000
F000
D800
CC00
C600
C700
C300
C180
C0C0
ENDCHAR
STARTCHAR 040E
ENCODING 1038
SWIDTH 630 0
DWIDTH 14 0
BBX 12 19 1 0
BITMAP
18C0
0F80
0000
C030
C030
6060
6060
6060
30C0
30C0
1980
1980
1980
0F00
0F00
0600
0600
CE00
3C00
ENDCHAR
STARTCHAR 040F
ENCODING 1039
SWIDTH 630 0
DWIDTH 14 0
BBX 10 18 2 -2
BITMAP
C0C0
C0C0
C0C0
C0C0
C0C0
C0C0
C0C0
C0C0
C0C0
C0C0
C0C0
C0C0
C0C0
C0C0
C0C0
FFC0
0C00
0C00
ENDCHAR
STARTCHAR 0410
ENCODING 1040
SWIDTH 765 0
DWIDTH 17 0
BBX 15 16 1 0
BITMAP
0100
0380
0380
06C0
06C0
06C0
0C60
0C60
1830
1FF0
3018
3018
3018
600C
600C
C006
ENDCHAR
STARTCHAR 0411
ENCODING 1041
SWIDTH 585 0
DWIDTH 13 0
BBX 9 16 2 0
BITMAP
FF00
C000
C000
C000
C000
C000
C000
FC00
C300
C380
C180
C180
C180
C180
C300
FE00
ENDCHAR
STARTCHAR 0412
ENCODING 1042
SWIDTH 585 0
DWIDTH 13 0
BBX 9 16 2 0
BITMAP
FC00
C600
C300
C300
C300
C300
C600
FC00
C300
C380
C180
C180
C180
C180
C300
FE00
ENDCHAR
STARTCHAR 0413
ENCODING 1043
SWIDTH 450 0
DWIDTH 10 0
BBX 8 16 2 0
BITMAP
FF
C0
C0
C0
C0
C0
C0
C0
C0
C0
C0
C0
C0
C0
C0
C0
ENDCHAR
STARTCHAR 0414
ENCODING 1044
SWIDTH 720 0
DWIDTH 16 0
BBX 16 18 0 -2
BITMAP
0180
0180
0380
03C0
03C0
0660
0660
0E60
0C30
0C30
1818
1818
3818
300C
300C
FFFF
C003
C003
ENDCHAR
STARTCHAR 0415
ENCODING 1045
SWIDTH 540 0
DWIDTH 12 0
BBX 9 16 2 0
BITMAP
FF80
C000
C000
C000
C000
C000
C000
FF80
C000
C000
C000
C000
C000
C000
C000
FF80
ENDCHAR
STARTCHAR 0416
ENCODING 1046
SWIDTH 945 0
DWIDTH 21 0
BBX 18 16 1 0
BITMAP
60C180
30C300
18C600
0CCC00
0CCC00
06D800
03F000
03F000
06D800
0EDC00
0CCC00
18C600
30C300
60C180
60C180
C0C0C0
ENDCHAR
STARTCHAR 0417
ENCODING 1047
SWIDTH 585 0
DWIDTH 13 0
BBX 10 16 1 0
BITMAP
3E00
6300
0180
0180
0180
0180
0300
0E00
0180
00C0
00C0
00C0
00C0
81C0
4380
3E00
ENDCHAR
STARTCHAR 0418
ENCODING 1048
SWIDTH 720 0
DWIDTH 16 0
BBX 12 16 2 0
BITMAP
C010
C030
C030
C070
C0F0
C1B0
C330
C730
CE30
CC30
D830
F030
E030
C030
C030
8030
ENDCHAR
STARTCHAR 0419
ENCODING 1049
SWIDTH 720 0
DWIDTH 16 0
BBX 12 19 2 0
BITMAP
18C0
0F80
0000
C010
C030
C030
C070
C0F0
C1B0
C330
C730
CE30
CC30
D830
F030
E030
C030
C030
8030
ENDCHAR
STARTCHAR 041A
ENCODING 1050
SWIDTH 585 0
DWIDTH 13 0
BBX 10 16 2 0
BITMAP
C180
C300
C600
CC00
D800
F000
E000
E000
F000
D800
CC00
C600
C700
C300
C180
C0C0
ENDCHAR
STARTCHAR 041B
ENCODING 1051
SWIDTH 675 0
DWIDTH 15 0
BBX 15 16 0 0
BITMAP
0100
0380
0380
07C0
06C0
06C0
0C60
0C60
1830
1830
3018
3018
3018
600C
600C
C006
ENDCHAR
STARTCHAR 041C
ENCODING 1052
SWIDTH 1035 0
DWIDTH 23 0
BBX 19 16 2 0
BITMAP
200080
300180
300180
380380
7803C0
6C06C0
6C06C0
660CC0
660CC0
6318C0
6318C0
61B0C0
C1B060
C0E060
C0E060
C04060
ENDCHAR
STARTCHAR 041D
ENCODING 1053
SWIDTH 675 0
DWIDTH 15 0
BBX 11 16 2 0
BITMAP
C060
C060
C060
C060
C060
C060
C060
FFE0
C060
C060
C060
C060
C060
C060
C060
C060
ENDCHAR
STARTCHAR 041E
ENCODING 1054
SWIDTH 855 0
DWIDTH 19 0
BBX 15 16 2 0
BITMAP
07C0
1830
3018
600C
600C
C006
C006
C006
C006
C006
C006
600C
600C
3018
1830
07C0
ENDCHAR
STARTCHAR 041F
ENCODING 1055
SWIDTH 675 0
DWIDTH 15 0
BBX 11 16 2 0
BITMAP
FFE0
C060
C060
C060
C060
C060
C060
C060
C060
C060
C060
C060
C060
C060
C060
C060
ENDCHAR
STARTCHAR 0420
ENCODING 1056
SWIDTH 585 0
DWIDTH 13 0
BBX 9 16 2 0
BITMAP
FE00
C300
C180
C180
C180
C180
C300
FE00
C000
C000
C000
C000
C000
C000
C000
C000
ENDCHAR
STARTCHAR 0421
ENCODING 1057
SWIDTH 810 0
DWIDTH 18 0
BBX 14 16 2 0
BITMAP
07E0
1C38
300C
6004
6000
C000
C000
C000
C000
C000
C000
6000
6008
300C
1C30
07E0
ENDCHAR
STARTCHAR 0422
ENCODING 1058
SWIDTH 495 0
DWIDTH 11 0
BBX 10 16 0 0
BITMAP
FFC0
0C00
0C00
0C00
0C00
0C00
0C00
0C00
0C00
0C00
0C00
0C00
0C00
0C00
0C00
0C00
ENDCHAR
STARTCHAR 0423
ENCODING 1059
SWIDTH 630 0
DWIDTH 14 0
BBX 12 16 1 0
BITMAP
C030
C030
6060
6060
6060
30C0
30C0
1980
1980
1980
0F00
0F00
0600
0600
CE00
3C00
ENDCHAR
STARTCHAR 0424
ENCODING 1060
SWIDTH 855 0
DWIDTH 19 0
BBX 17 16 1 0
BITMAP
018000
018000
1FFC00
618700
C18300
C18180
C18180
C18180
C18180
618300
3FFC00
018000
018000
018000
018000
018000
ENDCHAR
STARTCHAR 0425
ENCODING 1061
SWIDTH 585 0
DWIDTH 13 0
BBX 12 16 0 0
BITMAP
C030
6060
6060
30C0
1980
1980
0F00
0600
0600
0F00
1980
1980
30C0
6060
6060
C030
ENDCHAR
STARTCHAR 0426
ENCODING 1062
SWIDTH 720 0
DWIDTH 16 0
BBX 14 18 2 -2
BITMAP
C060
C060
C060
C060
C060
C060
C060
C060
C060
C060
C060
C060
C060
C060
C060
FFFC
000C
000C
ENDCHAR
STARTCHAR 0427
ENCODING 1063
SWIDTH 540 0
DWIDTH 12 0
BBX 10 16 0 0
BITMAP
C0C0
C0C0
C0C0
C0C0
C0C0
C0C0
60C0
3FC0
00C0
00C0
00C0
00C0
00C0
00C0
00C0
00C0
ENDCHAR
STARTCHAR 0428
ENCODING 1064
SWIDTH 990 0
DWIDTH 22 0
BBX 18 16 2 0
BITMAP
C0C0C0
C0C0C0
C0C0C0
C0C0C0
C0C0C0
C0C0C0
C0C0C0
C0C0C0
C0C0C0
C0C0C0
C0C0C0
C0C0C0
C0C0C0
C0C0C0
C0C0C0
FFFFC0
ENDCHAR
STARTCHAR 0429
ENCODING 1065
SWIDTH 1035 0
DWIDTH 23 0
BBX 21 18 2 -2
BITMAP
C0C0C0
C0C0C0
C0C0C0
C0C0C0
C0C0C0
C0C0C0
C0C0C0
C0C0C0
C0C0C0
C0C0C0
C0C0C0
C0C0C0
C0C0C0
C0C0C0
C0C0C0
FFFFF8
000018
000018
ENDCHAR
STARTCHAR 042A
ENCODING 1066
SWIDTH 675 0
DWIDTH 15 0
BBX 14 16 0 0
BITMAP
F800
1800
1800
1800
1800
1800
1800
1FF0
1818
180C
180C
180C
180C
180C
1818
1FE0
ENDCHAR
STARTCHAR 042B
ENCODING 1067
SWIDTH 765 0
DWIDTH 17 0
BBX 13 16 2 0
BITMAP
C018
C018
C018
C018
C018
C018
C018
FE18
C318
C198
C198
C198
C198
C198
C318
FE18
ENDCHAR
STARTCHAR 042C
ENCODING 1068
SWIDTH 585 0
DWIDTH 13 0
BBX 9 16 2 0
BITMAP
C000
C000
C000
C000
C000
C000
C000
FE00
C300
C180
C180
C180
C180
C180
C300
FE00
ENDCHAR
STARTCHAR 042D
ENCODING 1069
SWIDTH 810 0
DWIDTH 18 0
BBX 14 16 2 0
BITMAP
1F80
70E0
C030
8018
0018
000C
000C
03FC
000C
000C
001C
0018
0018
C030
70E0
1F80
ENDCHAR
STARTCHAR 042E
ENCODING 1070
SWIDTH 1080 0
DWIDTH 24 0
BBX 20 16 2 0
BITMAP
C03E00
C0C180
C180C0
C30060
C30060
C60030
C60030
FE0030
C60030
C60030
C60030
C30060
C30060
C180C0
C0C180
C03E00
ENDCHAR
STARTCHAR 042F
ENCODING 1071
SWIDTH 585 0
DWIDTH 13 0
BBX 9 16 2 0
BITMAP
3F80
6180
C180
C180
C180
C180
6180
3F80
0D80
0D80
1980
1980
3180
7180
6180
C180
ENDCHAR
STARTCHAR 0430
ENCODING 1072
SWIDTH 675 0
DWIDTH 15 0
BBX 12 12 1 0
BITMAP
1F30
30B0
6070
E030
C030
C030
C030
C030
E030
6070
30B0
1F30
ENDCHAR
STARTCHAR 0431
ENCODING 1073
SWIDTH 675 0
DWIDTH 15 0
BBX 13 16 1 0
BITMAP
1FF0
3000
6000
4000
8F80
B0E0
A030
E030
C018
C018
C018
C018
6030
6030
3060
0F80
ENDCHAR
STARTCHAR 0432
ENCODING 1074
SWIDTH 450 0
DWIDTH 10 0
BBX 8 12 1 0
BITMAP
FC
C6
C6
C6
C4
FC
C6
C3
C3
C3
C6
FC
ENDCHAR
STARTCHAR 0433
ENCODING 1075
SWIDTH 360 0
DWIDTH 8 0
BBX 7 12 1 0
BITMAP
FE
C0
C0
C0
C0
C0
C0
C0
C0
C0
C0
C0
ENDCHAR
STARTCHAR 0434
ENCODING 1076
SWIDTH 585 0
DWIDTH 13 0
BBX 13 14 0 -2
BITMAP
0200
0700
0700
0700
0D80
0D80
08C0
18C0
18C0
3060
3060
FFF8
C018
C018
ENDCHAR
STARTCHAR 0435
ENCODING 1077
SWIDTH 630 0
DWIDTH 14 0
BBX 12 12 1 0
BITMAP
1F80
30C0
6060
6030
C030
FFF0
C000
C000
C060
6060
30C0
1F80
ENDCHAR
STARTCHAR 0436
ENCODING 1078
SWIDTH 765 0
DWIDTH 17 0
BBX 16 12 0 0
BITMAP
C183
6186
318C
1998
0DB0
07E0
0FF0
1998
318C
318C
6186
C183
ENDCHAR
STARTCHAR 0437
ENCODING 1079
SWIDTH 405 0
DWIDTH 9 0
BBX 8 12 0 0
BITMAP
7C
8E
06
06
06
1C
06
03
03
03
86
7C
ENDCHAR
STARTCHAR 0438
ENCODING 1080
SWIDTH 630 0
DWIDTH 14 0
BBX 12 12 1 0
BITMAP
C030
C070
C0F0
C1F0
C3B0
C730
CE30
DC30
F830
F030
E030
C030
ENDCHAR
STARTCHAR 0439
ENCODING 1081
SWIDTH 630 0
DWIDTH 14 0
BBX 12 16 1 0
BITMAP
18C0
0F80
0000
0000
C030
C070
C0F0
C1F0
C3B0
C730
CE30
DC30
F830
F030
E030
C030
ENDCHAR
STARTCHAR 043A
ENCODING 1082
SWIDTH 495 0
DWIDTH 11 0
BBX 10 12 1 0
BITMAP
C180
C300
C600
CC00
D800
F000
D800
CC00
C600
C300
C180
C0C0
ENDCHAR
STARTCHAR 043B
ENCODING 1083
SWIDTH 540 0
DWIDTH 12 0
BBX 10 12 1 0
BITMAP
0C00
0C00
0E00
1E00
1E00
3300
3300
3300
6180
6180
C0C0
C0C0
ENDCHAR
STARTCHAR 043C
ENCODING 1084
SWIDTH 855 0
DWIDTH 19 0
BBX 17 12 1 0
BITMAP
080800
180C00
1C1C00
1C1C00
363600
363600
336600
636300
63C300
61C300
C1C180
C08180
ENDCHAR
STARTCHAR 043D
ENCODING 1085
SWIDTH 585 0
DWIDTH 13 0
BBX 11 12 1 0
BITMAP
C060
C060
C060
C060
C060
FFE0
C060
C060
C060
C060
C060
C060
ENDCHAR
STARTCHAR 043E
ENCODING 1086
SWIDTH 630 0
DWIDTH 14 0
BBX 12 12 1 0
BITMAP
0F00
30C0
6060
6060
C030
C030
C030
C030
6060
6060
30C0
1F80
ENDCHAR
STARTCHAR 043F
ENCODING 1087
SWIDTH 585 0
DWIDTH 13 0
BBX 11 12 1 0
BITMAP
FFE0
C060
C060
C060
C060
C060
C060
C060
C060
C060
C060
C060
ENDCHAR
STARTCHAR 0440
ENCODING 1088
SWIDTH 675 0
DWIDTH 15 0
BBX 12 16 2 -4
BITMAP
CF80
D0C0
E060
C070
C030
C030
C030
C030
C070
E060
D0C0
CF80
C000
C000
C000
C000
ENDCHAR
STARTCHAR 0441
ENCODING 1089
SWIDTH 630 0
DWIDTH 14 0
BBX 12 12 1 0
BITMAP
0FC0
3820
6010
6000
C000
C000
C000
C000
6000
6010
3820
0FC0
ENDCHAR
STARTCHAR 0442
ENCODING 1090
SWIDTH 360 0
DWIDTH 8 0
BBX 6 12 1 0
BITMAP
FC
30
30
30
30
30
30
30
30
30
30
30
ENDCHAR
STARTCHAR 0443
ENCODING 1091
SWIDTH 585 0
DWIDTH 13 0
BBX 12 16 0 -4
BITMAP
C030
6060
6060
30C0
30C0
3180
1980
1B00
0F00
0E00
0600
0C00
0C00
1800
1800
3000
ENDCHAR
STARTCHAR 0444
ENCODING 1092
SWIDTH 1080 0
DWIDTH 24 0
BBX 22 20 1 -4
BITMAP
003000
003000
003000
003000
1F33E0
30B430
607818
E0301C
C0300C
C0300C
C0300C
C0300C
E0301C
607818
30B430
1F33E0
003000
003000
003000
003000
ENDCHAR
STARTCHAR 0445
ENCODING 1093
SWIDTH 495 0
DWIDTH 11 0
BBX 11 12 0 0
BITMAP
60C0
3180
1B00
1B00
0E00
0E00
0E00
1B00
3180
3180
60C0
C060
ENDCHAR
STARTCHAR 0446
ENCODING 1094
SWIDTH 630 0
DWIDTH 14 0
BBX 13 14 1 -2
BITMAP
C060
C060
C060
C060
C060
C060
C060
C060
C060
C060
C060
FFF8
0018
0018
ENDCHAR
STARTCHAR 0447
ENCODING 1095
SWIDTH 450 0
DWIDTH 10 0
BBX 8 12 1 0
BITMAP
C3
C3
C3
C3
C3
7F
03
03
03
03
03
03
ENDCHAR
STARTCHAR 0448
ENCODING 1096
SWIDTH 945 0
DWIDTH 21 0
BBX 19 12 1 0
BITMAP
C0C060
C0C060
C0C060
C0C060
C0C060
C0C060
C0C060
C0C060
C0C060
C0C060
C0C060
FFFFE0
ENDCHAR
STARTCHAR 0449
ENCODING 1097
SWIDTH 990 0
DWIDTH 22 0
BBX 21 14 1 -2
BITMAP
C0C060
C0C060
C0C060
C0C060
C0C060
C0C060
C0C060
C0C060
C0C060
C0C060
C0C060
FFFFF8
000018
000018
ENDCHAR
STARTCHAR 044A
ENCODING 1098
SWIDTH 495 0
DWIDTH 11 0
BBX 10 12 0 0
BITMAP
F000
3000
3000
3000
3000
3F00
3180
30C0
30C0
30C0
3180
3F00
ENDCHAR
STARTCHAR 044B
ENCODING 1099
SWIDTH 675 0
DWIDTH 15 0
BBX 13 12 1 0
BITMAP
C018
C018
C018
C018
C018
FE18
C318
C198
C198
C198
C318
FE18
ENDCHAR
STARTCHAR 044C
ENCODING 1100
SWIDTH 450 0
DWIDTH 10 0
BBX 8 12 1 0
BITMAP
C0
C0
C0
C0
C0
FC
C6
C3
C3
C3
C6
FC
ENDCHAR
STARTCHAR 044D
ENCODING 1101
SWIDTH 630 0
DWIDTH 14 0
BBX 12 12 1 0
BITMAP
3F00
E1C0
8060
0060
0030
07F0
0030
0030
0060
80E0
E1C0
3F00
ENDCHAR
STARTCHAR 044E
ENCODING 1102
SWIDTH 810 0
DWIDTH 18 0
BBX 16 12 1 0
BITMAP
C1F0
C30C
C606
CE06
CC03
FC03
CC03
CC03
C402
C606
C30C
C0F0
ENDCHAR
STARTCHAR 044F
ENCODING 1103
SWIDTH 450 0
DWIDTH 10 0
BBX 8 12 1 0
BITMAP
3F
E3
C3
C3
E3
3F
1B
33
33
63
63
C3
ENDCHAR
STARTCHAR 0451
ENCODING 1105
SWIDTH 630 0
DWIDTH 14 0
BBX 12 17 1 0
BITMAP
39C0
39C0
39C0
0000
0000
1F80
30C0
6060
6030
C030
FFF0
C000
C000
C060
6060
30C0
1F80
ENDCHAR
STARTCHAR 0452
ENCODING 1106
SWIDTH 585 0
DWIDTH 13 0
BBX 13 20 -1 -4
BITMAP
3000
3000
FF80
3000
33E0
3430
3818
3018
3018
3018
3018
3018
3018
3018
3018
3018
0018
0018
0018
0070
ENDCHAR
STARTCHAR 0453
ENCODING 1107
SWIDTH 360 0
DWIDTH 8 0
BBX 7 17 1 0
BITMAP
0C
18
30
00
00
FE
C0
C0
C0
C0
C0
C0
C0
C0
C0
C0
C0
ENDCHAR
STARTCHAR 0454
ENCODING 1108
SWIDTH 630 0
DWIDTH 14 0
BBX 12 12 1 0
BITMAP
0FC0
3870
6010
6000
C000
FE00
C000
C000
6000
7010
3870
0FC0
ENDCHAR
STARTCHAR 0455
ENCODING 1109
SWIDTH 405 0
DWIDTH 9 0
BBX 7 12 1 0
BITMAP
3C
62
60
60
70
38
1C
0E
06
06
CC
78
ENDCHAR
STARTCHAR 0456
ENCODING 1110
SWIDTH 180 0
DWIDTH 4 0
BBX 2 16 1 0
BITMAP
C0
C0
00
00
C0
C0
C0
C0
C0
C0
C0
C0
C0
C0
C0
C0
ENDCHAR
STARTCHAR 0457
ENCODING 1111
SWIDTH 270 0
DWIDTH 6 0
BBX 8 17 -1 0
BITMAP
E7
E7
E7
00
00
18
18
18
18
18
18
18
18
18
18
18
18
ENDCHAR
STARTCHAR 0458
ENCODING 1112
SWIDTH 180 0
DWIDTH 4 0
BBX 4 20 -1 -4
BITMAP
30
30
00
00
30
30
30
30
30
30
30
30
30
30
30
30
30
30
30
E0
ENDCHAR
STARTCHAR 0459
ENCODING 1113
SWIDTH 765 0
DWIDTH 17 0
BBX 15 12 1 0
BITMAP
0C00
0C00
0E00
1E00
1E00
33F8
330C
3386
6186
6186
C0CC
C0F8
ENDCHAR
STARTCHAR 045A
ENCODING 1114
SWIDTH 855 0
DWIDTH 19 0
BBX 17 12 1 0
BITMAP
C06000
C06000
C06000
C06000
C06000
FFFE00
C06300
C06180
C06180
C06180
C06300
C07E00
ENDCHAR
STARTCHAR 045B
ENCODING 1115
SWIDTH 585 0
DWIDTH 13 0
BBX 13 16 -1 0
BITMAP
3000
3000
FF80
3000
33E0
3430
3818
3018
3018
3018
3018
3018
3018
3018
3018
3018
ENDCHAR
STARTCHAR 045C
ENCODING 1116
SWIDTH 495 0
DWIDTH 11 0
BBX 10 17 1 0
BITMAP
0600
0C00
1800
0000
0000
C180
C300
C600
CC00
D800
F000
D800
CC00
C600
C300
C180
C0C0
ENDCHAR
STARTCHAR 045E
ENCODING 1118
SWIDTH 585 0
DWIDTH 13 0
BBX 12 20 0 -4
BITMAP
18C0
0F80
0000
0000
C030
6060
6060
30C0
30C0
3180
1980
1B00
0F00
0E00
0600
0C00
0C00
1800
1800
3000
ENDCHAR
STARTCHAR 045F
ENCODING 1119
SWIDTH 585 0
DWIDTH 13 0
BBX 11 14 1 -2
BITMAP
C060
C060
C060
C060
C060
C060
C060
C060
C060
C060
C060
FFE0
0600
0600
ENDCHAR
STARTCHAR 0490
ENCODING 1168
SWIDTH 405 0
DWIDTH 9 0
BBX 7 18 2 0
BITMAP
06
06
FE
C0
C0
C0
C0
C0
C0
C0
C0
C0
C0
C0
C0
C0
C0
C0
ENDCHAR
STARTCHAR 0491
ENCODING 1169
SWIDTH 360 0
DWIDTH 8 0
BBX 6 14 1 0
BITMAP
0C
0C
FC
C0
C0
C0
C0
C0
C0
C0
C0
C0
C0
C0
ENDCHAR
STARTCHAR 1E80
ENCODING 7808
SWIDTH 1035 0
DWIDTH 23 0
BBX 21 20 1 0
BITMAP
00C000
006000
003000
000000
C02018
C06018
607030
607030
60D830
30D860
318860
318C60
318C60
1B06C0
1B06C0
1B02C0
0E0380
0E0380
0C0180
0C0180
ENDCHAR
STARTCHAR 1E81
ENCODING 7809
SWIDTH 900 0
DWIDTH 20 0
BBX 19 17 0 0
BITMAP
018000
00C000
006000
000000
000000
C04060
60E0C0
60E0C0
61A0C0
31B180
31B180
1B1B00
1B1B00
1B0B00
0E0E00
0E0E00
0C0600
ENDCHAR
STARTCHAR 1E82
ENCODING 7810
SWIDTH 1035 0
DWIDTH 23 0
BBX 21 20 1 0
BITMAP
003000
006000
00C000
000000
C02018
C06018
607030
607030
60D830
30D860
318860
318C60
318C60
1B06C0
1B06C0
1B02C0
0E0380
0E0380
0C0180
0C0180
ENDCHAR
STARTCHAR 1E83
ENCODING 7811
SWIDTH 900 0
DWIDTH 20 0
BBX 19 17 0 0
BITMAP
003000
006000
00C000
000000
000000
C04060
60E0C0
60E0C0
61A0C0
31B180
31B180
1B1B00
1B1B00
1B0B00
0E0E00
0E0E00
0C0600
ENDCHAR
STARTCHAR 1E84
ENCODING 7812
SWIDTH 945 0
DWIDTH 21 0
BBX 21 20 1 0
BITMAP
01CE00
01CE00
01CE00
000000
C02018
C06018
607030
607030
60D830
30D860
318860
318C60
318C60
1B06C0
1B06C0
1B02C0
0E0380
0E0380
0C0180
0C0180
ENDCHAR
STARTCHAR 1E85
ENCODING 7813
SWIDTH 900 0
DWIDTH 20 0
BBX 19 17 0 0
BITMAP
039C00
039C00
039C00
000000
000000
C04060
60E0C0
60E0C0
61A0C0
31B180
31B180
1B1B00
1B1B00
1B0B00
0E0E00
0E0E00
0C0600
ENDCHAR
STARTCHAR 1EF2
ENCODING 7922
SWIDTH 630 0
DWIDTH 14 0
BBX 12 20 1 0
BITMAP
0C00
0600
0300
0000
C030
6060
70E0
30C0
1980
1980
0F00
0F00
0600
0600
0600
0600
0600
0600
0600
0600
ENDCHAR
STARTCHAR 1EF3
ENCODING 7923
SWIDTH 585 0
DWIDTH 13 0
BBX 12 21 0 -4
BITMAP
0C00
0600
0300
0000
0000
C030
6060
6060
30C0
30C0
3180
1980
1B00
0F00
0E00
0600
0C00
0C00
1800
1800
3000
ENDCHAR
STARTCHAR 2013
ENCODING 8211
SWIDTH 495 0
DWIDTH 11 0
BBX 11 1 0 5
BITMAP
FFE0
ENDCHAR
STARTCHAR 2014
ENCODING 8212
SWIDTH 990 0
DWIDTH 22 0
BBX 22 1 0 5
BITMAP
FFFFFC
ENDCHAR
STARTCHAR 2015
ENCODING 8213
SWIDTH 765 0
DWIDTH 17 0
BBX 17 1 0 5
BITMAP
FFFF80
ENDCHAR
STARTCHAR 2017
ENCODING 8215
SWIDTH 495 0
DWIDTH 11 0
BBX 13 3 -1 -5
BITMAP
FFF8
0000
FFF8
ENDCHAR
STARTCHAR 2018
ENCODING 8216
SWIDTH 360 0
DWIDTH 8 0
BBX 2 6 3 10
BITMAP
40
80
80
C0
C0
C0
ENDCHAR
STARTCHAR 2019
ENCODING 8217
SWIDTH 360 0
DWIDTH 8 0
BBX 2 6 3 10
BITMAP
C0
C0
C0
40
40
80
ENDCHAR
STARTCHAR 201A
ENCODING 8218
SWIDTH 360 0
DWIDTH 8 0
BBX 2 6 3 -3
BITMAP
C0
C0
C0
40
40
80
ENDCHAR
STARTCHAR 201B
ENCODING 8219
SWIDTH 360 0
DWIDTH 8 0
BBX 2 6 3 10
BITMAP
C0
C0
C0
80
80
40
ENDCHAR
STARTCHAR 201C
ENCODING 8220
SWIDTH 495 0
DWIDTH 11 0
BBX 7 6 2 10
BITMAP
42
84
84
C6
C6
C6
ENDCHAR
STARTCHAR 201D
ENCODING 8221
SWIDTH 495 0
DWIDTH 11 0
BBX 7 6 2 10
BITMAP
C6
C6
C6
42
42
84
ENDCHAR
STARTCHAR 201E
ENCODING 8222
SWIDTH 495 0
DWIDTH 11 0
BBX 7 6 2 -3
BITMAP
C6
C6
C6
42
42
84
ENDCHAR
STARTCHAR 2020
ENCODING 8224
SWIDTH 540 0
DWIDTH 12 0
BBX 10 19 1 -3
BITMAP
0C00
0C00
0C00
0C00
0C00
FFC0
0C00
0C00
0C00
0C00
0C00
0C00
0C00
0C00
0C00
0C00
0C00
0C00
0C00
ENDCHAR
STARTCHAR 2021
ENCODING 8225
SWIDTH 585 0
DWIDTH 13 0
BBX 10 19 1 -3
BITMAP
0C00
0C00
0C00
0C00
FFC0
0C00
0C00
0C00
0C00
0C00
0C00
0C00
0C00
0C00
FFC0
0C00
0C00
0C00
0C00
ENDCHAR
STARTCHAR 2022
ENCODING 8226
SWIDTH 630 0
DWIDTH 14 0
BBX 7 7 3 4
BITMAP
38
7C
FE
FE
FE
7C
38
ENDCHAR
STARTCHAR 2026
ENCODING 8230
SWIDTH 1080 0
DWIDTH 24 0
BBX 19 3 2 0
BITMAP
E0E0E0
E0E0E0
E0E0E0
ENDCHAR
STARTCHAR 2030
ENCODING 8240
SWIDTH 1080 0
DWIDTH 24 0
BBX 23 17 1 -1
BITMAP
383800
6FF000
C63000
C66000
C6C000
6CC000
398000
018000
030000
063838
066C6C
0CC6C6
0CC6C6
18C6C6
306C6C
303838
600000
ENDCHAR
STARTCHAR 2032
ENCODING 8242
SWIDTH 180 0
DWIDTH 4 0
BBX 2 5 1 11
BITMAP
C0
C0
C0
80
80
ENDCHAR
STARTCHAR 2033
ENCODING 8243
SWIDTH 315 0
DWIDTH 7 0
BBX 6 5 1 11
BITMAP
CC
CC
CC
88
88
ENDCHAR
STARTCHAR 2039
ENCODING 8249
SWIDTH 270 0
DWIDTH 6 0
BBX 4 12 1 0
BITMAP
30
70
60
60
E0
C0
C0
E0
60
60
70
30
ENDCHAR
STARTCHAR 203A
ENCODING 8250
SWIDTH 270 0
DWIDTH 6 0
BBX 4 12 1 0
BITMAP
C0
E0
60
60
70
30
30
70
60
60
E0
C0
ENDCHAR
STARTCHAR 203C
ENCODING 8252
SWIDTH 540 0
DWIDTH 12 0
BBX 7 16 3 0
BITMAP
C6
C6
C6
C6
C6
C6
C6
C6
C6
C6
C6
00
00
C6
C6
C6
ENDCHAR
STARTCHAR 203E
ENCODING 8254
SWIDTH 540 0
DWIDTH 12 0
BBX 12 1 0 20
BITMAP
FFF0
ENDCHAR
STARTCHAR 2044
ENCODING 8260
SWIDTH 180 0
DWIDTH 4 0
BBX 12 16 -4 0
BITMAP
0030
0060
00C0
00C0
0180
0180
0300
0600
0600
0C00
1800
1800
3000
3000
6000
C000
ENDCHAR
STARTCHAR 207F
ENCODING 8319
SWIDTH 360 0
DWIDTH 8 0
BBX 6 7 1 7
BITMAP
D8
FC
CC
CC
CC
CC
CC
ENDCHAR
STARTCHAR 20A3
ENCODING 8355
SWIDTH 495 0
DWIDTH 11 0
BBX 10 16 0 0
BITMAP
3FC0
3000
3000
3000
3000
3000
3000
3FC0
3000
3000
3000
3000
FE00
3000
3000
3000
ENDCHAR
STARTCHAR 20A4
ENCODING 8356
SWIDTH 540 0
DWIDTH 12 0
BBX 11 16 0 0
BITMAP
0F00
1980
30C0
30C0
3000
3000
FF00
1800
FF00
0C00
0C00
0C00
7C60
DC60
DE60
71C0
ENDCHAR
STARTCHAR 20A7
ENCODING 8359
SWIDTH 1080 0
DWIDTH 24 0
BBX 21 16 2 0
BITMAP
FC3000
C63000
C33000
C33000
C3FFF0
C33188
C23180
C63180
FC30C0
C03060
C03030
C03018
C03018
C03018
C03130
C031E0
ENDCHAR
STARTCHAR 20AC
ENCODING 8364
SWIDTH 540 0
DWIDTH 12 0
BBX 10 16 1 0
BITMAP
03C0
0C00
1800
3000
3000
6000
FF80
6000
6000
FF00
6000
3000
3000
1800
0E00
03C0
ENDCHAR
STARTCHAR 2105
ENCODING 8453
SWIDTH 855 0
DWIDTH 19 0
BBX 18 16 1 0
BITMAP
3C0C00
7E0C00
E01800
C03000
C03000
E06000
7E6000
3CC000
00C700
018F80
019DC0
0318C0
0718C0
0618C0
0C0F80
0C0700
ENDCHAR
STARTCHAR 2113
ENCODING 8467
SWIDTH 360 0
DWIDTH 8 0
BBX 7 16 0 0
BITMAP
1C
32
32
32
34
34
38
38
30
70
70
F0
30
30
32
1C
ENDCHAR
STARTCHAR 2116
ENCODING 8470
SWIDTH 1080 0
DWIDTH 24 0
BBX 21 16 2 0
BITMAP
803000
C03000
C03000
E03000
F03000
D83000
CC30E0
CE3110
C73208
C33208
C1B208
C0F110
C070E0
C03000
C03000
C013F8
ENDCHAR
STARTCHAR 2122
ENCODING 8482
SWIDTH 990 0
DWIDTH 22 0
BBX 21 9 0 7
BITMAP
FF3C78
183C78
183C78
1836D8
1836D8
183698
183398
183398
183118
ENDCHAR
STARTCHAR 2126
ENCODING 8486
SWIDTH 765 0
DWIDTH 17 0
BBX 14 16 2 0
BITMAP
0FC0
3FF0
3870
6018
E01C
C00C
C00C
C00C
C00C
C00C
6018
6018
3030
1860
FCFC
FCFC
ENDCHAR
STARTCHAR 212E
ENCODING 8494
SWIDTH 585 0
DWIDTH 13 0
BBX 11 12 1 0
BITMAP
1F00
2080
4040
C060
C060
FFE0
C000
C000
C040
4040
2180
1F00
ENDCHAR
STARTCHAR 215B
ENCODING 8539
SWIDTH 810 0
DWIDTH 18 0
BBX 16 16 2 0
BITMAP
E030
6060
6060
60C0
60C0
6180
6300
6300
061E
0633
0C33
180C
1833
3033
3033
601E
ENDCHAR
STARTCHAR 215C
ENCODING 8540
SWIDTH 810 0
DWIDTH 18 0
BBX 18 16 0 0
BITMAP
7C0C00
C61800
061800
183000
063000
C66000
666000
7CC000
00C780
018CC0
018CC0
030300
030CC0
060CC0
060CC0
0C0780
ENDCHAR
STARTCHAR 215D
ENCODING 8541
SWIDTH 810 0
DWIDTH 18 0
BBX 17 16 0 0
BITMAP
3C0600
300C00
600C00
781800
0C1800
0C3000
CC6000
786000
00CF00
00D980
019980
030600
031980
061980
061980
0C0F00
ENDCHAR
STARTCHAR 215E
ENCODING 8542
SWIDTH 810 0
DWIDTH 18 0
BBX 17 16 1 0
BITMAP
FC1800
183000
183000
306000
306000
60C000
C18000
C18000
030F00
031980
061980
0C0600
0C1980
181980
181980
300F00
ENDCHAR
STARTCHAR 2190
ENCODING 8592
SWIDTH 990 0
DWIDTH 22 0
BBX 20 7 1 2
BITMAP
080000
100000
600000
FFFFF0
600000
100000
080000
ENDCHAR
STARTCHAR 2191
ENCODING 8593
SWIDTH 495 0
DWIDTH 11 0
BBX 7 20 2 -4
BITMAP
10
38
38
54
92
10
10
10
10
10
10
10
10
10
10
10
10
10
10
10
ENDCHAR
STARTCHAR 2192
ENCODING 8594
SWIDTH 990 0
DWIDTH 22 0
BBX 20 7 1 2
BITMAP
000100
000080
000060
FFFFF0
000060
000080
000100
ENDCHAR
STARTCHAR 2193
ENCODING 8595
SWIDTH 495 0
DWIDTH 11 0
BBX 7 20 2 -4
BITMAP
10
10
10
10
10
10
10
10
10
10
10
10
10
10
10
92
54
38
38
10
ENDCHAR
STARTCHAR 2194
ENCODING 8596
SWIDTH 990 0
DWIDTH 22 0
BBX 20 7 1 2
BITMAP
080100
100080
600060
FFFFF0
600060
100080
080100
ENDCHAR
STARTCHAR 2195
ENCODING 8597
SWIDTH 495 0
DWIDTH 11 0
BBX 7 20 2 -4
BITMAP
10
38
38
54
92
10
10
10
10
10
10
10
10
10
10
92
54
38
38
10
ENDCHAR
STARTCHAR 21A8
ENCODING 8616
SWIDTH 495 0
DWIDTH 11 0
BBX 7 22 2 -6
BITMAP
10
38
38
54
92
10
10
10
10
10
10
10
10
10
10
92
54
38
38
10
00
FE
ENDCHAR
STARTCHAR 2202
ENCODING 8706
SWIDTH 495 0
DWIDTH 11 0
BBX 10 16 1 0
BITMAP
0F00
1180
3080
00C0
00C0
00C0
0FC0
38C0
70C0
60C0
C180
C180
C180
C300
6600
7800
ENDCHAR
STARTCHAR 2206
ENCODING 8710
SWIDTH 585 0
DWIDTH 13 0
BBX 13 15 0 0
BITMAP
0200
0200
0700
0700
0700
0980
0980
10C0
10C0
2060
2060
2060
4030
4030
FFF8
ENDCHAR
STARTCHAR 220F
ENCODING 8719
SWIDTH 810 0
DWIDTH 18 0
BBX 15 20 1 -4
BITMAP
FFFE
FFFE
C006
C006
C006
C006
C006
C006
C006
C006
C006
C006
C006
C006
C006
C006
C006
C006
C006
C006
ENDCHAR
STARTCHAR 2211
ENCODING 8721
SWIDTH 720 0
DWIDTH 16 0
BBX 14 20 1 -4
BITMAP
FFFC
FFFC
C000
6000
3000
1800
0C00
0600
0300
0180
0300
0600
0E00
0C00
1800
3000
6000
C000
FFFC
FFFC
ENDCHAR
STARTCHAR 2212
ENCODING 8722
SWIDTH 585 0
DWIDTH 13 0
BBX 10 2 1 7
BITMAP
FFC0
FFC0
ENDCHAR
STARTCHAR 2215
ENCODING 8725
SWIDTH 180 0
DWIDTH 4 0
BBX 12 16 -4 0
BITMAP
0030
0060
00C0
00C0
0180
0180
0300
0600
0600
0C00
1800
1800
3000
3000
6000
C000
ENDCHAR
STARTCHAR 2219
ENCODING 8729
SWIDTH 270 0
DWIDTH 6 0
BBX 3 3 1 6
BITMAP
E0
E0
E0
ENDCHAR
STARTCHAR 221A
ENCODING 8730
SWIDTH 540 0
DWIDTH 12 0
BBX 11 21 1 0
BITMAP
0020
0020
0020
0040
0040
0040
0040
0040
0040
3040
F080
3880
1880
0C80
0C80
0680
0780
0300
0300
0100
0100
ENDCHAR
STARTCHAR 221E
ENCODING 8734
SWIDTH 720 0
DWIDTH 16 0
BBX 13 7 1 4
BITMAP
00F0
7938
CF18
C618
CF18
7938
00F0
ENDCHAR
STARTCHAR 221F
ENCODING 8735
SWIDTH 990 0
DWIDTH 22 0
BBX 14 14 4 0
BITMAP
8000
8000
8000
8000
8000
8000
8000
8000
8000
8000
8000
8000
8000
FFFC
ENDCHAR
STARTCHAR 2229
ENCODING 8745
SWIDTH 585 0
DWIDTH 13 0
BBX 11 16 1 0
BITMAP
0F00
3180
4040
4040
8020
8020
8020
8020
8020
8020
8020
8020
8020
8020
8020
8020
ENDCHAR
STARTCHAR 222B
ENCODING 8747
SWIDTH 270 0
DWIDTH 6 0
BBX 6 22 0 -2
BITMAP
1C
2C
20
20
20
30
30
30
30
30
30
30
30
30
30
30
30
10
10
10
E0
E0
ENDCHAR
STARTCHAR 2248
ENCODING 8776
SWIDTH 540 0
DWIDTH 12 0
BBX 11 7 0 5
BITMAP
7800
8E20
03C0
0000
7800
8E20
03C0
ENDCHAR
STARTCHAR 2260
ENCODING 8800
SWIDTH 540 0
DWIDTH 12 0
BBX 11 17 0 -1
BITMAP
0180
0180
0300
0300
0300
FFE0
FFE0
0600
0E00
0C00
FFE0
FFE0
1800
1800
1800
3000
3000
ENDCHAR
STARTCHAR 2261
ENCODING 8801
SWIDTH 585 0
DWIDTH 13 0
BBX 10 12 1 2
BITMAP
FFC0
FFC0
0000
0000
0000
FFC0
FFC0
0000
0000
0000
FFC0
FFC0
ENDCHAR
STARTCHAR 2264
ENCODING 8804
SWIDTH 540 0
DWIDTH 12 0
BBX 11 13 1 2
BITMAP
0020
01E0
0780
3E00
F800
C000
F800
3E00
0780
01E0
0020
0000
FFE0
ENDCHAR
STARTCHAR 2265
ENCODING 8805
SWIDTH 540 0
DWIDTH 12 0
BBX 11 13 1 2
BITMAP
8000
F000
7C00
0F80
03E0
0060
03E0
0F80
7C00
F000
8000
0000
FFE0
ENDCHAR
STARTCHAR 2302
ENCODING 8962
SWIDTH 585 0
DWIDTH 13 0
BBX 10 12 2 0
BITMAP
0800
1400
2200
4100
8080
8040
8040
8040
8040
8040
8040
FFC0
ENDCHAR
STARTCHAR 2310
ENCODING 8976
SWIDTH 585 0
DWIDTH 13 0
BBX 10 7 1 4
BITMAP
FFC0
FFC0
C000
C000
C000
C000
C000
ENDCHAR
STARTCHAR 2320
ENCODING 8992
SWIDTH 585 0
DWIDTH 13 0
BBX 4 25 6 -6
BITMAP
30
70
90
80
80
80
80
80
80
80
80
80
80
80
80
80
80
80
80
80
80
80
80
80
80
ENDCHAR
STARTCHAR 2321
ENCODING 8993
SWIDTH 585 0
DWIDTH 13 0
BBX 4 24 3 -5
BITMAP
10
10
10
10
10
10
10
10
10
10
10
10
10
10
10
10
10
10
10
10
10
10
90
E0
ENDCHAR
STARTCHAR 2500
ENCODING 9472
SWIDTH 720 0
DWIDTH 16 0
BBX 16 2 0 6
BITMAP
FFFF
FFFF
ENDCHAR
STARTCHAR 2502
ENCODING 9474
SWIDTH 720 0
DWIDTH 16 0
BBX 2 27 7 -7
BITMAP
C0
C0
C0
C0
C0
C0
C0
C0
C0
C0
C0
C0
C0
C0
C0
C0
C0
C0
C0
C0
C0
C0
C0
C0
C0
C0
C0
ENDCHAR
STARTCHAR 250C
ENCODING 9484
SWIDTH 720 0
DWIDTH 16 0
BBX 9 15 7 -7
BITMAP
FF80
FF80
C000
C000
C000
C000
C000
C000
C000
C000
C000
C000
C000
C000
C000
ENDCHAR
STARTCHAR 2510
ENCODING 9488
SWIDTH 720 0
DWIDTH 16 0
BBX 9 15 0 -7
BITMAP
FF80
FF80
0180
0180
0180
0180
0180
0180
0180
0180
0180
0180
0180
0180
0180
ENDCHAR
STARTCHAR 2514
ENCODING 9492
SWIDTH 720 0
DWIDTH 16 0
BBX 9 14 7 6
BITMAP
C000
C000
C000
C000
C000
C000
C000
C000
C000
C000
C000
C000
FF80
FF80
ENDCHAR
STARTCHAR 2518
ENCODING 9496
SWIDTH 720 0
DWIDTH 16 0
BBX 9 14 0 6
BITMAP
0180
0180
0180
0180
0180
0180
0180
0180
0180
0180
0180
0180
FF80
FF80
ENDCHAR
STARTCHAR 251C
ENCODING 9500
SWIDTH 720 0
DWIDTH 16 0
BBX 9 27 7 -7
BITMAP
C000
C000
C000
C000
C000
C000
C000
C000
C000
C000
C000
C000
FF80
FF80
C000
C000
C000
C000
C000
C000
C000
C000
C000
C000
C000
C000
C000
ENDCHAR
STARTCHAR 2524
ENCODING 9508
SWIDTH 720 0
DWIDTH 16 0
BBX 9 27 0 -7
BITMAP
0180
0180
0180
0180
0180
0180
0180
0180
0180
0180
0180
0180
FF80
FF80
0180
0180
0180
0180
0180
0180
0180
0180
0180
0180
0180
0180
0180
ENDCHAR
STARTCHAR 252C
ENCODING 9516
SWIDTH 720 0
DWIDTH 16 0
BBX 16 15 0 -7
BITMAP
FFFF
FFFF
0180
0180
0180
0180
0180
0180
0180
0180
0180
0180
0180
0180
0180
ENDCHAR
STARTCHAR 2534
ENCODING 9524
SWIDTH 720 0
DWIDTH 16 0
BBX 16 14 0 6
BITMAP
0180
0180
0180
0180
0180
0180
0180
0180
0180
0180
0180
0180
FFFF
FFFF
ENDCHAR
STARTCHAR 253C
ENCODING 9532
SWIDTH 720 0
DWIDTH 16 0
BBX 16 27 0 -7
BITMAP
0180
0180
0180
0180
0180
0180
0180
0180
0180
0180
0180
0180
FFFF
FFFF
0180
0180
0180
0180
0180
0180
0180
0180
0180
0180
0180
0180
0180
ENDCHAR
STARTCHAR 2550
ENCODING 9552
SWIDTH 720 0
DWIDTH 16 0
BBX 16 6 0 4
BITMAP
FFFF
FFFF
0000
0000
FFFF
FFFF
ENDCHAR
STARTCHAR 2551
ENCODING 9553
SWIDTH 720 0
DWIDTH 16 0
BBX 6 27 5 -7
BITMAP
CC
CC
CC
CC
CC
CC
CC
CC
CC
CC
CC
CC
CC
CC
CC
CC
CC
CC
CC
CC
CC
CC
CC
CC
CC
CC
CC
ENDCHAR
STARTCHAR 2552
ENCODING 9554
SWIDTH 720 0
DWIDTH 16 0
BBX 9 17 7 -7
BITMAP
FF80
FF80
C000
C000
FF80
FF80
C000
C000
C000
C000
C000
C000
C000
C000
C000
C000
C000
ENDCHAR
STARTCHAR 2553
ENCODING 9555
SWIDTH 720 0
DWIDTH 16 0
BBX 11 15 5 -7
BITMAP
FFE0
FFE0
CC00
CC00
CC00
CC00
CC00
CC00
CC00
CC00
CC00
CC00
CC00
CC00
CC00
ENDCHAR
STARTCHAR 2554
ENCODING 9556
SWIDTH 720 0
DWIDTH 16 0
BBX 11 17 5 -7
BITMAP
FFE0
FFE0
C000
C000
CFE0
CFE0
CC00
CC00
CC00
CC00
CC00
CC00
CC00
CC00
CC00
CC00
CC00
ENDCHAR
STARTCHAR 2555
ENCODING 9557
SWIDTH 720 0
DWIDTH 16 0
BBX 9 17 0 -7
BITMAP
FF80
FF80
0180
0180
FF80
FF80
0180
0180
0180
0180
0180
0180
0180
0180
0180
0180
0180
ENDCHAR
STARTCHAR 2556
ENCODING 9558
SWIDTH 720 0
DWIDTH 16 0
BBX 11 15 0 -7
BITMAP
FFE0
FFE0
0660
0660
0660
0660
0660
0660
0660
0660
0660
0660
0660
0660
0660
ENDCHAR
STARTCHAR 2557
ENCODING 9559
SWIDTH 720 0
DWIDTH 16 0
BBX 11 17 0 -7
BITMAP
FFE0
FFE0
0060
0060
FE60
FE60
0660
0660
0660
0660
0660
0660
0660
0660
0660
0660
0660
ENDCHAR
STARTCHAR 2558
ENCODING 9560
SWIDTH 720 0
DWIDTH 16 0
BBX 9 16 7 4
BITMAP
C000
C000
C000
C000
C000
C000
C000
C000
C000
C000
FF80
FF80
C000
C000
FF80
FF80
ENDCHAR
STARTCHAR 2559
ENCODING 9561
SWIDTH 720 0
DWIDTH 16 0
BBX 11 14 5 6
BITMAP
CC00
CC00
CC00
CC00
CC00
CC00
CC00
CC00
CC00
CC00
CC00
CC00
FFE0
FFE0
ENDCHAR
STARTCHAR 255A
ENCODING 9562
SWIDTH 720 0
DWIDTH 16 0
BBX 11 16 5 4
BITMAP
CC00
CC00
CC00
CC00
CC00
CC00
CC00
CC00
CC00
CC00
CFE0
CFE0
C000
C000
FFE0
FFE0
ENDCHAR
STARTCHAR 255B
ENCODING 9563
SWIDTH 720 0
DWIDTH 16 0
BBX 9 16 0 4
BITMAP
0180
0180
0180
0180
0180
0180
0180
0180
0180
0180
FF80
FF80
0180
0180
FF80
FF80
ENDCHAR
STARTCHAR 255C
ENCODING 9564
SWIDTH 720 0
DWIDTH 16 0
BBX 11 14 0 6
BITMAP
0660
0660
0660
0660
0660
0660
0660
0660
0660
0660
0660
0660
FFE0
FFE0
ENDCHAR
STARTCHAR 255D
ENCODING 9565
SWIDTH 720 0
DWIDTH 16 0
BBX 11 16 0 4
BITMAP
0660
0660
0660
0660
0660
0660
0660
0660
0660
0660
FE60
FE60
0060
0060
FFE0
FFE0
ENDCHAR
STARTCHAR 255E
ENCODING 9566
SWIDTH 720 0
DWIDTH 16 0
BBX 9 27 7 -7
BITMAP
C000
C000
C000
C000
C000
C000
C000
C000
C000
C000
FF80
FF80
C000
C000
FF80
FF80
C000
C000
C000
C000
C000
C000
C000
C000
C000
C000
C000
ENDCHAR
STARTCHAR 255F
ENCODING 9567
SWIDTH 720 0
DWIDTH 16 0
BBX 11 27 5 -7
BITMAP
CC00
CC00
CC00
CC00
CC00
CC00
CC00
CC00
CC00
CC00
CC00
CC00
CFE0
CFE0
CC00
CC00
CC00
CC00
CC00
CC00
CC00
CC00
CC00
CC00
CC00
CC00
CC00
ENDCHAR
STARTCHAR 2560
ENCODING 9568
SWIDTH 720 0
DWIDTH 16 0
BBX 11 27 5 -7
BITMAP
CC00
CC00
CC00
CC00
CC00
CC00
CC00
CC00
CC00
CC00
CFE0
CFE0
C000
C000
CFE0
CFE0
CC00
CC00
CC00
CC00
CC00
CC00
CC00
CC00
CC00
CC00
CC00
ENDCHAR
STARTCHAR 2561
ENCODING 9569
SWIDTH 720 0
DWIDTH 16 0
BBX 9 27 0 -7
BITMAP
0180
0180
0180
0180
0180
0180
0180
0180
0180
0180
FF80
FF80
0180
0180
FF80
FF80
0180
0180
0180
0180
0180
0180
0180
0180
0180
0180
0180
ENDCHAR
STARTCHAR 2562
ENCODING 9570
SWIDTH 720 0
DWIDTH 16 0
BBX 11 27 0 -7
BITMAP
0660
0660
0660
0660
0660
0660
0660
0660
0660
0660
0660
0660
FE60
FE60
0660
0660
0660
0660
0660
0660
0660
0660
0660
0660
0660
0660
0660
ENDCHAR
STARTCHAR 2563
ENCODING 9571
SWIDTH 720 0
DWIDTH 16 0
BBX 11 27 0 -7
BITMAP
0660
0660
0660
0660
0660
0660
0660
0660
0660
0660
FE60
FE60
0060
0060
FE60
FE60
0660
0660
0660
0660
0660
0660
0660
0660
0660
0660
0660
ENDCHAR
STARTCHAR 2564
ENCODING 9572
SWIDTH 720 0
DWIDTH 16 0
BBX 16 17 0 -7
BITMAP
FFFF
FFFF
0000
0000
FFFF
FFFF
0180
0180
0180
0180
0180
0180
0180
0180
0180
0180
0180
ENDCHAR
STARTCHAR 2565
ENCODING 9573
SWIDTH 720 0
DWIDTH 16 0
BBX 16 15 0 -7
BITMAP
FFFF
FFFF
0660
0660
0660
0660
0660
0660
0660
0660
0660
0660
0660
0660
0660
ENDCHAR
STARTCHAR 2566
ENCODING 9574
SWIDTH 720 0
DWIDTH 16 0
BBX 16 17 0 -7
BITMAP
FFFF
FFFF
0000
0000
FE7F
FE7F
0660
0660
0660
0660
0660
0660
0660
0660
0660
0660
0660
ENDCHAR
STARTCHAR 2567
ENCODING 9575
SWIDTH 720 0
DWIDTH 16 0
BBX 16 16 0 4
BITMAP
0180
0180
0180
0180
0180
0180
0180
0180
0180
0180
FFFF
FFFF
0000
0000
FFFF
FFFF
ENDCHAR
STARTCHAR 2568
ENCODING 9576
SWIDTH 720 0
DWIDTH 16 0
BBX 16 14 0 6
BITMAP
0660
0660
0660
0660
0660
0660
0660
0660
0660
0660
0660
0660
FFFF
FFFF
ENDCHAR
STARTCHAR 2569
ENCODING 9577
SWIDTH 720 0
DWIDTH 16 0
BBX 16 16 0 4
BITMAP
0660
0660
0660
0660
0660
0660
0660
0660
0660
0660
FE7F
FE7F
0000
0000
FFFF
FFFF
ENDCHAR
STARTCHAR 256A
ENCODING 9578
SWIDTH 720 0
DWIDTH 16 0
BBX 16 27 0 -7
BITMAP
0180
0180
0180
0180
0180
0180
0180
0180
0180
0180
FFFF
FFFF
0180
0180
FFFF
FFFF
0180
0180
0180
0180
0180
0180
0180
0180
0180
0180
0180
ENDCHAR
STARTCHAR 256B
ENCODING 9579
SWIDTH 720 0
DWIDTH 16 0
BBX 16 27 0 -7
BITMAP
0660
0660
0660
0660
0660
0660
0660
0660
0660
0660
0660
0660
FFFF
FFFF
0660
0660
0660
0660
0660
0660
0660
0660
0660
0660
0660
0660
0660
ENDCHAR
STARTCHAR 256C
ENCODING 9580
SWIDTH 720 0
DWIDTH 16 0
BBX 16 27 0 -7
BITMAP
0660
0660
0660
0660
0660
0660
0660
0660
0660
0660
FE7F
FE7F
0000
0000
FE7F
FE7F
0660
0660
0660
0660
0660
0660
0660
0660
0660
0660
0660
ENDCHAR
STARTCHAR 2580
ENCODING 9600
SWIDTH 720 0
DWIDTH 16 0
BBX 16 13 0 7
BITMAP
FFFF
FFFF
FFFF
FFFF
FFFF
FFFF
FFFF
FFFF
FFFF
FFFF
FFFF
FFFF
FFFF
ENDCHAR
STARTCHAR 2584
ENCODING 9604
SWIDTH 720 0
DWIDTH 16 0
BBX 16 14 0 -7
BITMAP
FFFF
FFFF
FFFF
FFFF
FFFF
FFFF
FFFF
FFFF
FFFF
FFFF
FFFF
FFFF
FFFF
FFFF
ENDCHAR
STARTCHAR 2588
ENCODING 9608
SWIDTH 720 0
DWIDTH 16 0
BBX 16 27 0 -7
BITMAP
FFFF
FFFF
FFFF
FFFF
FFFF
FFFF
FFFF
FFFF
FFFF
FFFF
FFFF
FFFF
FFFF
FFFF
FFFF
FFFF
FFFF
FFFF
FFFF
FFFF
FFFF
FFFF
FFFF
FFFF
FFFF
FFFF
FFFF
ENDCHAR
STARTCHAR 258C
ENCODING 9612
SWIDTH 720 0
DWIDTH 16 0
BBX 8 27 0 -7
BITMAP
FF
FF
FF
FF
FF
FF
FF
FF
FF
FF
FF
FF
FF
FF
FF
FF
FF
FF
FF
FF
FF
FF
FF
FF
FF
FF
FF
ENDCHAR
STARTCHAR 2590
ENCODING 9616
SWIDTH 720 0
DWIDTH 16 0
BBX 8 27 8 -7
BITMAP
FF
FF
FF
FF
FF
FF
FF
FF
FF
FF
FF
FF
FF
FF
FF
FF
FF
FF
FF
FF
FF
FF
FF
FF
FF
FF
FF
ENDCHAR
STARTCHAR 2591
ENCODING 9617
SWIDTH 720 0
DWIDTH 16 0
BBX 15 25 1 -5
BITMAP
C610
0000
0000
10C2
0000
C610
C610
0000
10C2
0000
0000
C610
0000
10C2
10C2
0000
C610
0000
0000
10C2
0000
C610
C610
0000
10C2
ENDCHAR
STARTCHAR 2592
ENCODING 9618
SWIDTH 720 0
DWIDTH 16 0
BBX 16 25 0 -5
BITMAP
4B69
0000
0000
B696
0000
4B69
4B69
0000
B696
0000
0000
4B69
0000
B696
B696
0000
4B69
0000
0000
B696
0000
4B69
4B69
0000
B696
ENDCHAR
STARTCHAR 2593
ENCODING 9619
SWIDTH 720 0
DWIDTH 16 0
BBX 16 27 0 -7
BITMAP
6969
FFFF
FFFF
9696
FFFF
6969
6969
FFFF
9696
FFFF
FFFF
6969
FFFF
9696
9696
FFFF
6969
FFFF
FFFF
9696
FFFF
6969
6969
FFFF
9696
FFFF
FFFF
ENDCHAR
STARTCHAR 25A0
ENCODING 9632
SWIDTH 585 0
DWIDTH 13 0
BBX 10 10 2 0
BITMAP
FFC0
FFC0
FFC0
FFC0
FFC0
FFC0
FFC0
FFC0
FFC0
FFC0
ENDCHAR
STARTCHAR 25A1
ENCODING 9633
SWIDTH 585 0
DWIDTH 13 0
BBX 9 10 2 0
BITMAP
FF80
8080
8080
8080
8080
8080
8080
8080
8080
FF80
ENDCHAR
STARTCHAR 25AA
ENCODING 9642
SWIDTH 360 0
DWIDTH 8 0
BBX 6 6 1 5
BITMAP
FC
FC
FC
FC
FC
FC
ENDCHAR
STARTCHAR 25AB
ENCODING 9643
SWIDTH 360 0
DWIDTH 8 0
BBX 6 6 1 5
BITMAP
FC
84
84
84
84
FC
ENDCHAR
STARTCHAR 25AC
ENCODING 9644
SWIDTH 990 0
DWIDTH 22 0
BBX 22 5 0 3
BITMAP
FFFFFC
FFFFFC
FFFFFC
FFFFFC
FFFFFC
ENDCHAR
STARTCHAR 25B2
ENCODING 9650
SWIDTH 990 0
DWIDTH 22 0
BBX 14 14 4 0
BITMAP
0300
0300
0780
0780
0FC0
0FC0
1FE0
1FE0
3FF0
3FF0
7FF8
7FF8
FFFC
FFFC
ENDCHAR
STARTCHAR 25BA
ENCODING 9658
SWIDTH 990 0
DWIDTH 22 0
BBX 16 15 3 0
BITMAP
C000
F000
FC00
FF00
FFC0
FFF0
FFFC
FFFF
FFFC
FFF0
FFC0
FF00
FC00
F000
C000
ENDCHAR
STARTCHAR 25BC
ENCODING 9660
SWIDTH 990 0
DWIDTH 22 0
BBX 15 15 3 0
BITMAP
FFFE
7FFE
7FFC
3FFC
3FF8
1FF8
1FF0
0FF0
0FE0
07E0
07C0
03C0
0380
0180
0100
ENDCHAR
STARTCHAR 25C4
ENCODING 9668
SWIDTH 990 0
DWIDTH 22 0
BBX 16 15 3 0
BITMAP
0003
000F
003F
00FF
03FF
0FFF
3FFF
FFFF
3FFF
0FFF
03FF
00FF
003F
000F
0003
ENDCHAR
STARTCHAR 25CA
ENCODING 9674
SWIDTH 495 0
DWIDTH 11 0
BBX 10 15 1 0
BITMAP
1C00
3600
3600
3300
6300
6180
C180
C0C0
C080
6180
6300
2300
3600
3600
1C00
ENDCHAR
STARTCHAR 25CB
ENCODING 9675
SWIDTH 585 0
DWIDTH 13 0
BBX 9 10 2 1
BITMAP
1E00
6100
8080
8080
8080
8080
8080
4100
2300
1C00
ENDCHAR
STARTCHAR 25CF
ENCODING 9679
SWIDTH 585 0
DWIDTH 13 0
BBX 9 9 2 1
BITMAP
3E00
7F00
FF80
FF80
FF80
FF80
FF80
7F00
3E00
ENDCHAR
STARTCHAR 25D8
ENCODING 9688
SWIDTH 585 0
DWIDTH 13 0
BBX 11 11 1 0
BITMAP
FFE0
FFE0
FFE0
FFE0
F1E0
E0E0
F0E0
F1E0
FFE0
FFE0
FFE0
ENDCHAR
STARTCHAR 25D9
ENCODING 9689
SWIDTH 585 0
DWIDTH 13 0
BBX 13 12 0 0
BITMAP
FFF8
F878
EFB8
DFD8
DFD8
DFF8
DFD8
DFD8
EFB8
F738
FDF8
FFF8
ENDCHAR
STARTCHAR 25E6
ENCODING 9702
SWIDTH 360 0
DWIDTH 8 0
BBX 6 6 1 5
BITMAP
78
CC
84
84
CC
78
ENDCHAR
STARTCHAR 263A
ENCODING 9786
SWIDTH 990 0
DWIDTH 22 0
BBX 14 13 4 -1
BITMAP
0FE0
3030
2008
4008
4864
8864
8004
8004
4804
4448
2398
1030
0FC0
ENDCHAR
STARTCHAR 263B
ENCODING 9787
SWIDTH 1035 0
DWIDTH 23 0
BBX 13 13 5 -1
BITMAP
1FC0
3FE0
7FF0
FFF8
E738
E738
FFF8
FFF8
FFF8
F778
78F0
3FE0
1FC0
ENDCHAR
STARTCHAR 263C
ENCODING 9788
SWIDTH 900 0
DWIDTH 20 0
BBX 20 19 0 -2
BITMAP
002000
002000
302040
18F180
0F0F00
040200
080100
080100
080100
F800F0
080100
080100
080100
040200
0F0F00
18F180
102040
002000
002000
ENDCHAR
STARTCHAR 2640
ENCODING 9792
SWIDTH 540 0
DWIDTH 12 0
BBX 11 18 0 -3
BITMAP
1F80
2040
4020
4020
8020
4020
4020
4040
2040
1F80
0400
0400
0400
0400
3FC0
0400
0400
0400
ENDCHAR
STARTCHAR 2642
ENCODING 9794
SWIDTH 675 0
DWIDTH 15 0
BBX 13 18 1 -4
BITMAP
0060
01E0
0650
0090
0090
0088
0100
0100
1E00
6180
8080
8040
8040
8040
80C0
40C0
2380
1E00
ENDCHAR
STARTCHAR 2660
ENCODING 9824
SWIDTH 540 0
DWIDTH 12 0
BBX 10 12 1 0
BITMAP
0C00
0C00
1E00
3F00
7F80
FFC0
FFC0
FFC0
7B80
0800
0C00
3F00
ENDCHAR
STARTCHAR 2663
ENCODING 9827
SWIDTH 675 0
DWIDTH 15 0
BBX 13 13 1 0
BITMAP
0F00
0F80
1F80
1F80
7FF0
FFF8
FFF8
FFF8
FDF8
72F0
0600
0700
3FC0
ENDCHAR
STARTCHAR 2665
ENCODING 9829
SWIDTH 585 0
DWIDTH 13 0
BBX 11 13 1 0
BITMAP
71C0
FBE0
FFE0
FFE0
FFE0
7FC0
7FC0
3F80
1F00
0E00
0E00
0400
0400
ENDCHAR
STARTCHAR 2666
ENCODING 9830
SWIDTH 495 0
DWIDTH 11 0
BBX 9 13 1 0
BITMAP
0800
1C00
1C00
3E00
7F00
FF80
FF80
FF80
7F00
3E00
1C00
1C00
0800
ENDCHAR
STARTCHAR 266A
ENCODING 9834
SWIDTH 765 0
DWIDTH 17 0
BBX 17 21 0 -5
BITMAP
003000
003800
003C00
002600
002300
002180
002000
002000
002000
002000
002000
002000
002000
0F2000
3FE000
7FE000
FFE000
FFE000
FFE000
7FC000
3F0000
ENDCHAR
STARTCHAR 266B
ENCODING 9835
SWIDTH 990 0
DWIDTH 22 0
BBX 16 21 3 -5
BITMAP
0003
001F
00FF
03FF
03F1
0381
0201
0201
0201
0201
0201
0201
021D
023F
027F
3E7F
7E7F
FE3E
FE00
7C00
3800
ENDCHAR
STARTCHAR F000
ENCODING 61440
SWIDTH 765 0
DWIDTH 17 0
BBX 1 1 0 0
BITMAP
00
ENDCHAR
STARTCHAR F001
ENCODING 61441
SWIDTH 495 0
DWIDTH 11 0
BBX 8 16 1 0
BITMAP
1E
33
30
30
FB
33
33
33
33
33
33
33
33
33
33
33
ENDCHAR
STARTCHAR F002
ENCODING 61442
SWIDTH 495 0
DWIDTH 11 0
BBX 8 16 1 0
BITMAP
1E
33
33
33
FB
33
33
33
33
33
33
33
33
33
33
33
ENDCHAR
STARTCHAR F003
ENCODING 61443
SWIDTH 360 0
DWIDTH 8 0
BBX 7 8 0 8
BITMAP
04
0C
1C
3C
7C
FE
0C
0C
ENDCHAR
STARTCHAR F004
ENCODING 61444
SWIDTH 315 0
DWIDTH 7 0
BBX 3 4 2 -5
BITMAP
60
40
40
80
ENDCHAR
STARTCHAR F005
ENCODING 61445
SWIDTH 315 0
DWIDTH 7 0
BBX 4 3 1 -4
BITMAP
70
30
E0
ENDCHAR
STARTCHAR F006
ENCODING 61446
SWIDTH 540 0
DWIDTH 12 0
BBX 12 12 0 0
BITMAP
FFF0
FFF0
30C0
30C0
30C0
30C0
30C0
30C0
30C0
30C0
30C0
30C0
ENDCHAR
STARTCHAR F100
ENCODING 61696
SWIDTH 540 0
DWIDTH 12 0
BBX 9 16 2 0
BITMAP
FF80
FF80
C000
C000
C000
C000
C000
C000
C000
C000
C000
C000
C000
C000
C000
C000
ENDCHAR
STARTCHAR F101
ENCODING 61697
SWIDTH 720 0
DWIDTH 16 0
BBX 12 16 2 0
BITMAP
0F00
3FC0
70E0
6060
C030
C030
C030
CF30
CF30
C030
C030
C030
6060
70E0
3FC0
0F00
ENDCHAR
STARTCHAR F102
ENCODING 61698
SWIDTH 810 0
DWIDTH 18 0
BBX 16 18 1 -2
BITMAP
0180
0180
0FF0
3FFC
718E
6186
C183
C183
C183
C183
C183
6186
718E
3FFC
0FF0
0180
0180
0180
ENDCHAR
STARTCHAR F103
ENCODING 61699
SWIDTH 630 0
DWIDTH 14 0
BBX 12 12 1 0
BITMAP
1F30
3FF0
60E0
C0E0
C060
C060
C060
C060
C060
60E0
3FF0
1E30
ENDCHAR
STARTCHAR F104
ENCODING 61700
SWIDTH 630 0
DWIDTH 14 0
BBX 12 17 1 0
BITMAP
07C0
1FC0
1800
1800
1C00
0E00
0780
1FC0
7FE0
6060
C030
C030
C030
C030
6060
3FC0
1F80
ENDCHAR
STARTCHAR F105
ENCODING 61701
SWIDTH 495 0
DWIDTH 11 0
BBX 9 12 1 0
BITMAP
0F80
3F80
7000
E000
C000
FF80
FF80
C000
E000
7000
3F80
0F80
ENDCHAR
STARTCHAR F106
ENCODING 61702
SWIDTH 675 0
DWIDTH 15 0
BBX 14 12 1 0
BITMAP
1FFC
3FFC
70E0
E070
C030
C030
C030
C030
E070
70E0
3FC0
1F80
ENDCHAR
STARTCHAR F107
ENCODING 61703
SWIDTH 495 0
DWIDTH 11 0
BBX 10 12 0 0
BITMAP
FFC0
FFC0
0C00
0C00
0C00
0C00
0C00
0C00
0C00
0C00
0C00
0C00
ENDCHAR
STARTCHAR F108
ENCODING 61704
SWIDTH 765 0
DWIDTH 17 0
BBX 14 19 1 -4
BITMAP
0300
0300
0300
1FE0
3FF0
6318
E31C
C30C
C30C
C30C
C30C
E31C
6338
3FF0
1FE0
0300
0300
0300
0300
ENDCHAR
STARTCHAR FB01
ENCODING 64257
SWIDTH 495 0
DWIDTH 11 0
BBX 8 16 1 0
BITMAP
1E
33
30
30
FB
33
33
33
33
33
33
33
33
33
33
33
ENDCHAR
STARTCHAR FB02
ENCODING 64258
SWIDTH 495 0
DWIDTH 11 0
BBX 8 16 1 0
BITMAP
1E
33
33
33
FB
33
33
33
33
33
33
33
33
33
33
33
ENDCHAR
ENDFONT
